<svg width="24" height="24" viewBox="0 0 24 24" fill="none" xmlns="http://www.w3.org/2000/svg">
<path fill-rule="evenodd" clip-rule="evenodd" d="M8.04763 4.16544L7.44108 4.60656L4.69108 6.60656L4.08453 7.04769L3.20227 5.83459L3.80882 5.39346L6.55882 3.39346L7.16537 2.95233L8.04763 4.16544ZM5.74995 13C5.74995 9.54823 8.54817 6.75001 12 6.75001C15.4517 6.75001 18.25 9.54823 18.25 13C18.25 16.4518 15.4517 19.25 12 19.25C8.54817 19.25 5.74995 16.4518 5.74995 13ZM12 5.25001C7.71974 5.25001 4.24995 8.71981 4.24995 13C4.24995 17.2802 7.71974 20.75 12 20.75C16.2802 20.75 19.75 17.2802 19.75 13C19.75 8.71981 16.2802 5.25001 12 5.25001ZM12.75 10V9.25001H11.25V10V13C11.25 13.4142 11.5857 13.75 12 13.75H14H14.75V12.25H14H12.75V10ZM17.4411 3.39346L16.8345 2.95233L15.9523 4.16544L16.5588 4.60656L19.3088 6.60656L19.9154 7.04769L20.7976 5.83459L20.1911 5.39346L17.4411 3.39346Z" fill="black"/>
</svg>
