<svg width="24" height="24" viewBox="0 0 24 24" fill="none" xmlns="http://www.w3.org/2000/svg">
<path d="M11.7046 2.31064C11.8932 2.22979 12.1068 2.22979 12.2954 2.31064L19.9848 5.60608L19.3939 6.9848L12 3.81598L4.60608 6.9848L4.0152 5.60608L11.7046 2.31064Z" fill="black"/>
<path d="M8.75 13.25H7.25V17.75H8.75V13.25Z" fill="black"/>
<path d="M12.75 13.25V17.75H11.25V13.25H12.75Z" fill="black"/>
<path d="M16.75 13.25H15.25V17.75H16.75V13.25Z" fill="black"/>
<path fill-rule="evenodd" clip-rule="evenodd" d="M2.25 9.25V10.75H3.25V20.25H2.25V21.75H21.75V20.25H20.75V10.75H21.75V9.25H2.25ZM19.25 10.75V20.25H4.75V10.75H19.25Z" fill="black"/>
</svg>
