<svg width="24" height="24" viewBox="0 0 24 24" fill="none" xmlns="http://www.w3.org/2000/svg">
<path fill-rule="evenodd" clip-rule="evenodd" d="M8.24995 17.75H3.99995C3.65933 17.75 3.36148 17.5205 3.2747 17.1911C3.18791 16.8617 3.33399 16.5152 3.63038 16.3474C4.07314 16.0966 4.45085 15.7455 4.7331 15.3221C5.00741 14.9106 5.1841 14.4422 5.24995 13.9524V11C5.24995 10.9883 5.25022 10.9765 5.25077 10.9648C5.31671 9.55995 5.76371 8.19949 6.54386 7.02927C7.24363 5.97962 8.18776 5.11852 9.29244 4.51836C9.39036 3.96791 9.65465 3.45621 10.0554 3.05546C10.5711 2.53973 11.2706 2.25 11.9999 2.25C12.7293 2.25 13.4288 2.53973 13.9445 3.05546C14.3452 3.45621 14.6095 3.96791 14.7075 4.51836C15.8121 5.11853 16.7563 5.97962 17.456 7.02927C18.2362 8.19949 18.6832 9.55995 18.7491 10.9648C18.7497 10.9765 18.7499 10.9883 18.7499 11V13.9524C18.8158 14.4422 18.9925 14.9106 19.2668 15.3221C19.549 15.7455 19.9268 16.0966 20.3695 16.3474C20.6659 16.5152 20.812 16.8617 20.7252 17.1911C20.6384 17.5205 20.3406 17.75 19.9999 17.75H15.7499V18C15.7499 18.9946 15.3549 19.9484 14.6516 20.6517C13.9483 21.3549 12.9945 21.75 11.9999 21.75C11.0054 21.75 10.0516 21.3549 9.3483 20.6517C8.64503 19.9484 8.24995 18.9946 8.24995 18V17.75ZM11.1161 4.11612C11.3505 3.8817 11.6684 3.75 11.9999 3.75C12.3315 3.75 12.6494 3.8817 12.8838 4.11612C13.1183 4.35054 13.2499 4.66848 13.2499 5C13.2499 5.29002 13.4172 5.55405 13.6793 5.67802C14.7047 6.16287 15.5788 6.9176 16.208 7.86132C16.8339 8.80031 17.194 9.89117 17.2499 11.0181V14C17.2499 14.0301 17.2518 14.0602 17.2554 14.0901C17.3447 14.8284 17.6062 15.5354 18.0187 16.1542C18.0402 16.1864 18.0621 16.2183 18.0843 16.25H5.91557C5.93781 16.2183 5.95968 16.1864 5.98117 16.1542C6.39368 15.5354 6.65515 14.8284 6.74451 14.0901C6.74813 14.0602 6.74995 14.0301 6.74995 14V11.0181C6.80593 9.89117 7.16595 8.80031 7.79193 7.86132C8.41817 6.92198 9.28708 6.16987 10.3063 5.68479C10.3422 5.66871 10.3766 5.6499 10.4092 5.62862C10.5016 5.5686 10.5773 5.49051 10.6336 5.40135C10.7115 5.27814 10.7525 5.13381 10.75 4.98684C10.7535 4.66008 10.8847 4.34743 11.1161 4.11612ZM9.74995 17.75V18C9.74995 18.5967 9.987 19.169 10.409 19.591C10.8309 20.0129 11.4032 20.25 11.9999 20.25C12.5967 20.25 13.169 20.0129 13.5909 19.591C14.0129 19.169 14.2499 18.5967 14.2499 18V17.75H9.74995Z" fill="black"/>
</svg>
