<svg width="253" height="253" viewBox="0 0 253 253" fill="none" xmlns="http://www.w3.org/2000/svg">
<rect width="252.125" height="252.045" transform="translate(0.874878 0.462158)" fill="#474747"/>
<g opacity="0.1">
<path fill-rule="evenodd" clip-rule="evenodd" d="M99.2975 12.7191C97.5918 12.1636 95.8088 11.8821 94.0148 11.8853C85.9518 11.8853 79.2214 17.4917 77.6803 24.9483L66.2551 22.6652C68.8766 9.99336 80.3058 0.462158 94.0129 0.462158C97.1547 0.462158 100.169 0.962442 102.995 1.88757L99.2975 12.7191Z" fill="white"/>
<path fill-rule="evenodd" clip-rule="evenodd" d="M112.564 49.4325L104.743 40.7907C108.234 37.7671 110.437 33.3559 110.437 28.4424C110.437 23.5289 108.238 19.1196 104.749 16.1001L112.568 7.45825C118.498 12.5921 122.239 20.0904 122.239 28.4424C122.239 36.7963 118.498 44.2966 112.564 49.4325Z" fill="white"/>
<path fill-rule="evenodd" clip-rule="evenodd" d="M77.6783 31.9424C79.2254 39.397 85.9479 44.9994 94.0029 44.9994C95.8 45.0031 97.586 44.7196 99.2935 44.1596L102.995 55.0031C100.171 55.9282 97.1487 56.4265 94.0049 56.4265C80.3137 56.4265 68.8865 46.9033 66.2551 34.2393L77.6783 31.9424V31.9424Z" fill="white"/>
<path fill-rule="evenodd" clip-rule="evenodd" d="M99.2974 78.0795C97.5917 77.5239 95.8086 77.2425 94.0147 77.2457C85.9517 77.2457 79.2213 82.852 77.6802 90.3086L66.255 88.0256C68.8764 75.3537 80.3056 65.8225 94.0127 65.8225C97.1545 65.8225 100.169 66.3228 102.995 67.2479L99.2974 78.0795Z" fill="white"/>
<path fill-rule="evenodd" clip-rule="evenodd" d="M112.564 114.793L104.743 106.151C108.234 103.127 110.437 98.7162 110.437 93.8027C110.437 88.8892 108.238 84.48 104.749 81.4604L112.568 72.8186C118.498 77.9525 122.239 85.4508 122.239 93.8027C122.239 102.157 118.498 109.657 112.564 114.793Z" fill="white"/>
<path fill-rule="evenodd" clip-rule="evenodd" d="M77.6782 97.3027C79.2253 104.757 85.9478 110.36 94.0028 110.36C95.7998 110.363 97.5859 110.08 99.2934 109.52L102.995 120.363C100.171 121.289 97.1486 121.787 94.0048 121.787C80.3136 121.787 68.8864 112.264 66.255 99.5997L77.6782 97.3027V97.3027Z" fill="white"/>
<path fill-rule="evenodd" clip-rule="evenodd" d="M33.9173 12.7191C32.2116 12.1636 30.4285 11.8821 28.6346 11.8853C20.5716 11.8853 13.8412 17.4917 12.3001 24.9483L0.874848 22.6652C3.49632 9.99336 14.9255 0.462158 28.6326 0.462158C31.7744 0.462158 34.7891 0.962442 37.6151 1.88757L33.9173 12.7191Z" fill="white"/>
<path fill-rule="evenodd" clip-rule="evenodd" d="M47.1835 49.4325L39.3628 40.7907C42.8541 37.7671 45.0566 33.3559 45.0566 28.4424C45.0566 23.5289 42.8581 19.1196 39.3688 16.1001L47.1875 7.45825C53.1176 12.5921 56.8591 20.0904 56.8591 28.4424C56.8591 36.7963 53.1176 44.2966 47.1835 49.4325Z" fill="white"/>
<path fill-rule="evenodd" clip-rule="evenodd" d="M12.2981 31.9424C13.8452 39.397 20.5676 44.9994 28.6227 44.9994C30.4197 45.0031 32.2058 44.7196 33.9133 44.1596L37.6151 55.0031C34.7911 55.9282 31.7684 56.4265 28.6247 56.4265C14.9335 56.4265 3.50625 46.9033 0.874848 34.2393L12.2981 31.9424V31.9424Z" fill="white"/>
<path fill-rule="evenodd" clip-rule="evenodd" d="M33.9173 78.0795C32.2116 77.5239 30.4285 77.2425 28.6346 77.2457C20.5716 77.2457 13.8412 82.852 12.3001 90.3086L0.874848 88.0256C3.49632 75.3537 14.9255 65.8225 28.6326 65.8225C31.7744 65.8225 34.7891 66.3228 37.6151 67.2479L33.9173 78.0795Z" fill="white"/>
<path fill-rule="evenodd" clip-rule="evenodd" d="M47.1835 114.793L39.3628 106.151C42.8541 103.127 45.0566 98.7162 45.0566 93.8027C45.0566 88.8892 42.8581 84.48 39.3688 81.4604L47.1875 72.8186C53.1176 77.9525 56.8591 85.4508 56.8591 93.8027C56.8591 102.157 53.1176 109.657 47.1835 114.793Z" fill="white"/>
<path fill-rule="evenodd" clip-rule="evenodd" d="M12.2981 97.3027C13.8452 104.757 20.5676 110.36 28.6227 110.36C30.4197 110.363 32.2058 110.08 33.9133 109.52L37.6151 120.363C34.7911 121.289 31.7684 121.787 28.6247 121.787C14.9335 121.787 3.50625 112.264 0.874848 99.5997L12.2981 97.3027V97.3027Z" fill="white"/>
<path fill-rule="evenodd" clip-rule="evenodd" d="M99.2975 143.44C97.5918 142.884 95.8088 142.603 94.0148 142.606C85.9518 142.606 79.2214 148.212 77.6803 155.669L66.2551 153.386C68.8766 140.714 80.3058 131.183 94.0129 131.183C97.1547 131.183 100.169 131.683 102.995 132.608L99.2975 143.44Z" fill="white"/>
<path fill-rule="evenodd" clip-rule="evenodd" d="M112.564 180.153L104.743 171.512C108.234 168.488 110.437 164.077 110.437 159.163C110.437 154.25 108.238 149.841 104.749 146.821L112.568 138.179C118.498 143.313 122.239 150.811 122.239 159.163C122.239 167.517 118.498 175.018 112.564 180.153Z" fill="white"/>
<path fill-rule="evenodd" clip-rule="evenodd" d="M77.6783 162.663C79.2254 170.118 85.9479 175.72 94.0029 175.72C95.8 175.724 97.586 175.441 99.2935 174.881L102.995 185.724C100.171 186.649 97.1487 187.147 94.0049 187.147C80.3137 187.147 68.8865 177.624 66.2551 164.96L77.6783 162.663V162.663Z" fill="white"/>
<path fill-rule="evenodd" clip-rule="evenodd" d="M99.2975 208.8C97.5918 208.245 95.8088 207.963 94.0148 207.966C85.9518 207.966 79.2214 213.573 77.6803 221.029L66.2551 218.746C68.8766 206.074 80.3058 196.543 94.0129 196.543C97.1547 196.543 100.169 197.043 102.995 197.969L99.2975 208.8Z" fill="white"/>
<path fill-rule="evenodd" clip-rule="evenodd" d="M112.564 245.514L104.743 236.872C108.234 233.848 110.437 229.437 110.437 224.523C110.437 219.61 108.238 215.201 104.749 212.181L112.568 203.539C118.498 208.673 122.239 216.171 122.239 224.523C122.239 232.877 118.498 240.378 112.564 245.514Z" fill="white"/>
<path fill-rule="evenodd" clip-rule="evenodd" d="M77.6783 228.023C79.2254 235.478 85.9479 241.08 94.0029 241.08C95.8 241.084 97.586 240.801 99.2935 240.241L102.995 251.084C100.171 252.009 97.1487 252.508 94.0049 252.508C80.3137 252.508 68.8865 242.984 66.2551 230.32L77.6783 228.023V228.023Z" fill="white"/>
<path fill-rule="evenodd" clip-rule="evenodd" d="M33.9173 143.44C32.2116 142.884 30.4285 142.603 28.6346 142.606C20.5716 142.606 13.8412 148.212 12.3001 155.669L0.874848 153.386C3.49632 140.714 14.9255 131.183 28.6326 131.183C31.7744 131.183 34.7891 131.683 37.6151 132.608L33.9173 143.44Z" fill="white"/>
<path fill-rule="evenodd" clip-rule="evenodd" d="M47.1835 180.153L39.3628 171.512C42.8541 168.488 45.0566 164.077 45.0566 159.163C45.0566 154.25 42.8581 149.841 39.3688 146.821L47.1875 138.179C53.1176 143.313 56.8591 150.811 56.8591 159.163C56.8591 167.517 53.1176 175.018 47.1835 180.153Z" fill="white"/>
<path fill-rule="evenodd" clip-rule="evenodd" d="M12.2981 162.663C13.8452 170.118 20.5676 175.72 28.6227 175.72C30.4197 175.724 32.2058 175.441 33.9133 174.881L37.6151 185.724C34.7911 186.649 31.7684 187.147 28.6247 187.147C14.9335 187.147 3.50625 177.624 0.874848 164.96L12.2981 162.663V162.663Z" fill="white"/>
<path fill-rule="evenodd" clip-rule="evenodd" d="M33.9173 208.8C32.2116 208.245 30.4285 207.963 28.6346 207.966C20.5716 207.966 13.8412 213.573 12.3001 221.029L0.874848 218.746C3.49632 206.074 14.9255 196.543 28.6326 196.543C31.7744 196.543 34.7891 197.043 37.6151 197.969L33.9173 208.8Z" fill="white"/>
<path fill-rule="evenodd" clip-rule="evenodd" d="M47.1835 245.514L39.3628 236.872C42.8541 233.848 45.0566 229.437 45.0566 224.523C45.0566 219.61 42.8581 215.201 39.3688 212.181L47.1875 203.539C53.1176 208.673 56.8591 216.171 56.8591 224.523C56.8591 232.877 53.1176 240.378 47.1835 245.514Z" fill="white"/>
<path fill-rule="evenodd" clip-rule="evenodd" d="M12.2981 228.023C13.8452 235.478 20.5676 241.08 28.6227 241.08C30.4197 241.084 32.2058 240.801 33.9133 240.241L37.6151 251.084C34.7911 252.009 31.7684 252.508 28.6247 252.508C14.9335 252.508 3.50625 242.984 0.874848 230.32L12.2981 228.023V228.023Z" fill="white"/>
<path fill-rule="evenodd" clip-rule="evenodd" d="M230.058 12.7191C228.352 12.1636 226.569 11.8821 224.775 11.8853C216.712 11.8853 209.982 17.4917 208.441 24.9483L197.016 22.6652C199.637 9.99336 211.066 0.462158 224.773 0.462158C227.915 0.462158 230.93 0.962442 233.756 1.88757L230.058 12.7191Z" fill="white"/>
<path fill-rule="evenodd" clip-rule="evenodd" d="M243.324 49.4325L235.504 40.7907C238.995 37.7671 241.197 33.3559 241.197 28.4424C241.197 23.5289 238.999 19.1196 235.51 16.1001L243.328 7.45825C249.258 12.5921 253 20.0904 253 28.4424C253 36.7963 249.258 44.2966 243.324 49.4325Z" fill="white"/>
<path fill-rule="evenodd" clip-rule="evenodd" d="M208.439 31.9424C209.986 39.397 216.708 44.9994 224.764 44.9994C226.561 45.0031 228.347 44.7196 230.054 44.1596L233.756 55.0031C230.932 55.9282 227.909 56.4265 224.766 56.4265C211.074 56.4265 199.647 46.9033 197.016 34.2393L208.439 31.9424V31.9424Z" fill="white"/>
<path fill-rule="evenodd" clip-rule="evenodd" d="M230.058 78.0795C228.352 77.5239 226.569 77.2425 224.775 77.2457C216.712 77.2457 209.982 82.852 208.441 90.3086L197.016 88.0256C199.637 75.3537 211.066 65.8225 224.773 65.8225C227.915 65.8225 230.93 66.3228 233.756 67.2479L230.058 78.0795Z" fill="white"/>
<path fill-rule="evenodd" clip-rule="evenodd" d="M243.324 114.793L235.504 106.151C238.995 103.127 241.197 98.7162 241.197 93.8027C241.197 88.8892 238.999 84.48 235.51 81.4604L243.328 72.8186C249.258 77.9525 253 85.4508 253 93.8027C253 102.157 249.258 109.657 243.324 114.793Z" fill="white"/>
<path fill-rule="evenodd" clip-rule="evenodd" d="M208.439 97.3027C209.986 104.757 216.708 110.36 224.763 110.36C226.56 110.363 228.347 110.08 230.054 109.52L233.756 120.363C230.932 121.289 227.909 121.787 224.765 121.787C211.074 121.787 199.647 112.264 197.016 99.5997L208.439 97.3027V97.3027Z" fill="white"/>
<path fill-rule="evenodd" clip-rule="evenodd" d="M164.678 12.7191C162.972 12.1636 161.189 11.8821 159.395 11.8853C151.332 11.8853 144.602 17.4917 143.061 24.9483L131.635 22.6652C134.257 9.99336 145.686 0.462158 159.393 0.462158C162.535 0.462158 165.55 0.962442 168.376 1.88757L164.678 12.7191Z" fill="white"/>
<path fill-rule="evenodd" clip-rule="evenodd" d="M177.944 49.4325L170.123 40.7907C173.615 37.7671 175.817 33.3559 175.817 28.4424C175.817 23.5289 173.619 19.1196 170.129 16.1001L177.948 7.45825C183.878 12.5921 187.62 20.0904 187.62 28.4424C187.62 36.7963 183.878 44.2966 177.944 49.4325Z" fill="white"/>
<path fill-rule="evenodd" clip-rule="evenodd" d="M143.059 31.9424C144.606 39.397 151.328 44.9994 159.383 44.9994C161.18 45.0031 162.966 44.7196 164.674 44.1596L168.376 55.0031C165.552 55.9282 162.529 56.4265 159.385 56.4265C145.694 56.4265 134.267 46.9033 131.635 34.2393L143.059 31.9424V31.9424Z" fill="white"/>
<path fill-rule="evenodd" clip-rule="evenodd" d="M164.678 78.0795C162.972 77.5239 161.189 77.2425 159.395 77.2457C151.332 77.2457 144.602 82.852 143.061 90.3086L131.635 88.0256C134.257 75.3537 145.686 65.8225 159.393 65.8225C162.535 65.8225 165.55 66.3228 168.376 67.2479L164.678 78.0795Z" fill="white"/>
<path fill-rule="evenodd" clip-rule="evenodd" d="M177.944 114.793L170.123 106.151C173.615 103.127 175.817 98.7162 175.817 93.8027C175.817 88.8892 173.619 84.48 170.129 81.4604L177.948 72.8186C183.878 77.9525 187.62 85.4508 187.62 93.8027C187.62 102.157 183.878 109.657 177.944 114.793Z" fill="white"/>
<path fill-rule="evenodd" clip-rule="evenodd" d="M143.059 97.3027C144.606 104.757 151.328 110.36 159.383 110.36C161.18 110.363 162.966 110.08 164.674 109.52L168.376 120.363C165.552 121.289 162.529 121.787 159.385 121.787C145.694 121.787 134.267 112.264 131.635 99.5997L143.059 97.3027V97.3027Z" fill="white"/>
<path fill-rule="evenodd" clip-rule="evenodd" d="M230.058 143.44C228.352 142.884 226.569 142.603 224.775 142.606C216.712 142.606 209.982 148.212 208.441 155.669L197.016 153.386C199.637 140.714 211.066 131.183 224.773 131.183C227.915 131.183 230.93 131.683 233.756 132.608L230.058 143.44Z" fill="white"/>
<path fill-rule="evenodd" clip-rule="evenodd" d="M243.324 180.153L235.504 171.512C238.995 168.488 241.197 164.077 241.197 159.163C241.197 154.25 238.999 149.841 235.51 146.821L243.328 138.179C249.258 143.313 253 150.811 253 159.163C253 167.517 249.258 175.018 243.324 180.153Z" fill="white"/>
<path fill-rule="evenodd" clip-rule="evenodd" d="M208.439 162.663C209.986 170.118 216.708 175.72 224.764 175.72C226.561 175.724 228.347 175.441 230.054 174.881L233.756 185.724C230.932 186.649 227.909 187.147 224.766 187.147C211.074 187.147 199.647 177.624 197.016 164.96L208.439 162.663V162.663Z" fill="white"/>
<path fill-rule="evenodd" clip-rule="evenodd" d="M230.058 208.8C228.352 208.245 226.569 207.963 224.775 207.966C216.712 207.966 209.982 213.573 208.441 221.029L197.016 218.746C199.637 206.074 211.066 196.543 224.773 196.543C227.915 196.543 230.93 197.043 233.756 197.969L230.058 208.8Z" fill="white"/>
<path fill-rule="evenodd" clip-rule="evenodd" d="M243.324 245.514L235.504 236.872C238.995 233.848 241.197 229.437 241.197 224.523C241.197 219.61 238.999 215.201 235.51 212.181L243.328 203.539C249.258 208.673 253 216.171 253 224.523C253 232.877 249.258 240.378 243.324 245.514Z" fill="white"/>
<path fill-rule="evenodd" clip-rule="evenodd" d="M208.439 228.023C209.986 235.478 216.708 241.08 224.764 241.08C226.561 241.084 228.347 240.801 230.054 240.241L233.756 251.084C230.932 252.009 227.909 252.508 224.766 252.508C211.074 252.508 199.647 242.984 197.016 230.32L208.439 228.023V228.023Z" fill="white"/>
<path fill-rule="evenodd" clip-rule="evenodd" d="M164.678 143.44C162.972 142.884 161.189 142.603 159.395 142.606C151.332 142.606 144.602 148.212 143.061 155.669L131.635 153.386C134.257 140.714 145.686 131.183 159.393 131.183C162.535 131.183 165.55 131.683 168.376 132.608L164.678 143.44Z" fill="white"/>
<path fill-rule="evenodd" clip-rule="evenodd" d="M177.944 180.153L170.123 171.512C173.615 168.488 175.817 164.077 175.817 159.163C175.817 154.25 173.619 149.841 170.129 146.821L177.948 138.179C183.878 143.313 187.62 150.811 187.62 159.163C187.62 167.517 183.878 175.018 177.944 180.153Z" fill="white"/>
<path fill-rule="evenodd" clip-rule="evenodd" d="M143.059 162.663C144.606 170.118 151.328 175.72 159.383 175.72C161.18 175.724 162.966 175.441 164.674 174.881L168.376 185.724C165.552 186.649 162.529 187.147 159.385 187.147C145.694 187.147 134.267 177.624 131.635 164.96L143.059 162.663V162.663Z" fill="white"/>
<path fill-rule="evenodd" clip-rule="evenodd" d="M164.678 208.8C162.972 208.245 161.189 207.963 159.395 207.966C151.332 207.966 144.602 213.573 143.061 221.029L131.635 218.746C134.257 206.074 145.686 196.543 159.393 196.543C162.535 196.543 165.55 197.043 168.376 197.969L164.678 208.8Z" fill="white"/>
<path fill-rule="evenodd" clip-rule="evenodd" d="M177.944 245.514L170.123 236.872C173.615 233.848 175.817 229.437 175.817 224.523C175.817 219.61 173.619 215.201 170.129 212.181L177.948 203.539C183.878 208.673 187.62 216.171 187.62 224.523C187.62 232.877 183.878 240.378 177.944 245.514Z" fill="white"/>
<path fill-rule="evenodd" clip-rule="evenodd" d="M143.059 228.023C144.606 235.478 151.328 241.08 159.383 241.08C161.18 241.084 162.966 240.801 164.674 240.241L168.376 251.084C165.552 252.009 162.529 252.508 159.385 252.508C145.694 252.508 134.267 242.984 131.635 230.32L143.059 228.023V228.023Z" fill="white"/>
</g>
</svg>
