<svg width="24" height="24" viewBox="0 0 24 24" fill="none" xmlns="http://www.w3.org/2000/svg">
<path fill-rule="evenodd" clip-rule="evenodd" d="M5 4.75C4.86193 4.75 4.75 4.86193 4.75 5V7.25H7.25V4.75H5ZM7.25 3.25H8.75H19C19.9665 3.25 20.75 4.0335 20.75 5V7.25V8.75V19C20.75 19.9665 19.9665 20.75 19 20.75H5C4.0335 20.75 3.25 19.9665 3.25 19V8.75V7.25V5C3.25 4.0335 4.0335 3.25 5 3.25H7.25ZM8.75 4.75V7.25H19.25V5C19.25 4.86193 19.1381 4.75 19 4.75H8.75ZM8.75 8.75H7.25H4.75V19C4.75 19.1381 4.86193 19.25 5 19.25H19C19.1381 19.25 19.25 19.1381 19.25 19V8.75H8.75Z" fill="black"/>
</svg>
