<svg width="24" height="24" viewBox="0 0 24 24" fill="none" xmlns="http://www.w3.org/2000/svg">
<path fill-rule="evenodd" clip-rule="evenodd" d="M12.75 2.25V4.75H11.25V2.25H12.75ZM5.6 4.53934L7.36066 6.3L6.3 7.36066L4.53934 5.6L5.6 4.53934ZM19.4607 5.6L17.7 7.36066L16.6393 6.3L18.4 4.53934L19.4607 5.6ZM2.25 11.25H4.75V12.75H2.25V11.25ZM19.25 11.25H21.75V12.75H19.25V11.25ZM12 7.75C11.108 7.75 10.2386 8.03066 9.51498 8.55222C8.79135 9.07378 8.25017 9.80981 7.9681 10.656C7.68602 11.5023 7.67735 12.4158 7.94332 13.2672C8.20928 14.1186 8.7364 14.8648 9.45 15.4C9.47737 15.4205 9.50331 15.4429 9.52763 15.467C9.76639 15.7033 9.97545 15.9663 10.1511 16.25H13.8489C14.0246 15.9663 14.2336 15.7033 14.4724 15.467C14.4967 15.4429 14.5226 15.4205 14.55 15.4C15.2636 14.8648 15.7907 14.1186 16.0567 13.2672C16.3226 12.4158 16.314 11.5023 16.0319 10.656C15.7498 9.80981 15.2086 9.07378 14.485 8.55222C13.7614 8.03066 12.892 7.75 12 7.75ZM15.0092 17.2444C15.1354 16.9955 15.2989 16.7666 15.4949 16.566C16.4376 15.8445 17.1342 14.8485 17.4885 13.7145C17.8483 12.5625 17.8366 11.3266 17.4549 10.1817C17.0733 9.0368 16.3411 8.041 15.3621 7.33536C14.3831 6.62971 13.2068 6.25 12 6.25C10.7932 6.25 9.61694 6.62971 8.63792 7.33536C7.65889 8.041 6.9267 9.0368 6.54507 10.1817C6.16344 11.3266 6.15171 12.5625 6.51155 13.7145C6.86579 14.8485 7.56245 15.8445 8.50515 16.566C8.70091 16.7665 8.86439 16.9951 8.99046 17.2438C9.00821 17.2955 9.03145 17.3446 9.05947 17.3905C9.0918 17.4648 9.12088 17.5406 9.14662 17.6178C9.28311 18.0273 9.3213 18.4632 9.25809 18.8902C9.2527 18.9265 9.25 18.9632 9.25 19C9.25 19.7293 9.53973 20.4288 10.0555 20.9445C10.5712 21.4603 11.2707 21.75 12 21.75C12.7293 21.75 13.4288 21.4603 13.9445 20.9445C14.4603 20.4288 14.75 19.7293 14.75 19C14.75 18.9632 14.7473 18.9265 14.7419 18.8902C14.6787 18.4632 14.7169 18.0273 14.8534 17.6178C14.8792 17.5404 14.9083 17.4644 14.9408 17.3899C14.9685 17.3443 14.9916 17.2956 15.0092 17.2444ZM13.2767 17.75H10.7233C10.7985 18.177 10.8081 18.6141 10.7509 19.0461C10.7625 19.3609 10.8926 19.6604 11.1161 19.8839C11.3505 20.1183 11.6685 20.25 12 20.25C12.3315 20.25 12.6495 20.1183 12.8839 19.8839C13.1074 19.6604 13.2375 19.3609 13.2491 19.0461C13.1919 18.6141 13.2015 18.177 13.2767 17.75Z" fill="black"/>
</svg>
