<svg width="24" height="24" viewBox="0 0 24 24" fill="none" xmlns="http://www.w3.org/2000/svg">
<path fill-rule="evenodd" clip-rule="evenodd" d="M4.75 5C4.75 4.30964 5.30964 3.75 6 3.75H18C18.6904 3.75 19.25 4.30964 19.25 5V19C19.25 19.6904 18.6904 20.25 18 20.25H6C5.30964 20.25 4.75 19.6904 4.75 19V5ZM6 2.25C4.48122 2.25 3.25 3.48122 3.25 5V19C3.25 20.5188 4.48122 21.75 6 21.75H18C19.5188 21.75 20.75 20.5188 20.75 19V5C20.75 3.48122 19.5188 2.25 18 2.25H6ZM8.75 8C8.75 7.86193 8.86193 7.75 9 7.75H15C15.1381 7.75 15.25 7.86193 15.25 8V9C15.25 9.13807 15.1381 9.25 15 9.25H9C8.86193 9.25 8.75 9.13807 8.75 9V8ZM9 6.25C8.0335 6.25 7.25 7.0335 7.25 8V9C7.25 9.9665 8.0335 10.75 9 10.75H15C15.9665 10.75 16.75 9.9665 16.75 9V8C16.75 7.0335 15.9665 6.25 15 6.25H9ZM8.75 13.25V14.76H7.25V13.25H8.75ZM12.75 13.25H11.25V14.76H12.75V13.25ZM16.75 13.25V14.76H15.25V13.25H16.75ZM8.75 16.25H7.25V17.76H8.75V16.25ZM12.75 16.25V17.76H11.25V16.25H12.75ZM16.75 16.25H15.25V17.76H16.75V16.25Z" fill="black"/>
</svg>
