<svg width="24" height="24" viewBox="0 0 24 24" fill="none" xmlns="http://www.w3.org/2000/svg">
<path fill-rule="evenodd" clip-rule="evenodd" d="M16.75 2.25V3V4.25H18C19.5188 4.25 20.75 5.48122 20.75 7V10.25V11.75V19C20.75 20.5188 19.5188 21.75 18 21.75H6C4.48122 21.75 3.25 20.5188 3.25 19V11.75V10.25V7C3.25 5.48122 4.48122 4.25 6 4.25H7.25V3V2.25H8.75V3V4.25H15.25V3V2.25H16.75ZM19.25 7V10.25H4.75V7C4.75 6.30964 5.30964 5.75 6 5.75H7.25V7V7.75H8.75V7V5.75H15.25V7V7.75H16.75V7V5.75H18C18.6904 5.75 19.25 6.30964 19.25 7ZM4.75 19V11.75H19.25V19C19.25 19.6904 18.6904 20.25 18 20.25H6C5.30964 20.25 4.75 19.6904 4.75 19ZM8 14.25C7.58579 14.25 7.25 14.5858 7.25 15V17C7.25 17.4142 7.58579 17.75 8 17.75H10C10.4142 17.75 10.75 17.4142 10.75 17V15C10.75 14.5858 10.4142 14.25 10 14.25H8ZM8.75 16.25V15.75H9.25V16.25H8.75Z" fill="black"/>
</svg>
