<svg width="24" height="24" viewBox="0 0 24 24" fill="none" xmlns="http://www.w3.org/2000/svg">
<path fill-rule="evenodd" clip-rule="evenodd" d="M5 5.75C4.31421 5.75 3.75 6.31421 3.75 7V17C3.75 17.3315 3.8817 17.6495 4.11612 17.8839C4.35054 18.1183 4.66848 18.25 5 18.25H10H10.75V19.75H10H5C4.27065 19.75 3.57118 19.4603 3.05546 18.9445C2.53973 18.4288 2.25 17.7293 2.25 17V7C2.25 5.48579 3.48579 4.25 5 4.25H19C19.7293 4.25 20.4288 4.53973 20.9445 5.05546C21.4603 5.57118 21.75 6.27065 21.75 7V17V17.0008C21.7495 17.483 21.6222 17.9567 21.3809 18.3742C21.1395 18.7917 20.7926 19.1384 20.375 19.3795L19.7255 19.7545L18.9755 18.4555L19.625 18.0805C19.8148 17.9709 19.9725 17.8133 20.0822 17.6235C20.1919 17.4337 20.2498 17.2184 20.25 16.9992V7C20.25 6.66848 20.1183 6.35054 19.8839 6.11612C19.6495 5.8817 19.3315 5.75 19 5.75H5ZM12.75 15C12.75 13.7574 13.7574 12.75 15 12.75C16.2426 12.75 17.25 13.7574 17.25 15C17.25 15.7068 16.9241 16.3375 16.4143 16.75H16.25V16.8711C15.8925 17.1104 15.4625 17.25 15 17.25C14.5375 17.25 14.1075 17.1104 13.75 16.8711V16.75H13.5857C13.0759 16.3375 12.75 15.7068 12.75 15ZM12.25 17.5495C11.6294 16.8805 11.25 15.9845 11.25 15C11.25 12.9289 12.9289 11.25 15 11.25C17.0711 11.25 18.75 12.9289 18.75 15C18.75 15.9845 18.3706 16.8805 17.75 17.5495V22C17.75 22.2841 17.5895 22.5438 17.3354 22.6708C17.0813 22.7979 16.7773 22.7704 16.55 22.6L15 21.4375L13.45 22.6C13.2227 22.7704 12.9187 22.7979 12.6646 22.6708C12.4105 22.5438 12.25 22.2841 12.25 22V17.5495ZM13.75 18.5366V20.5L14.55 19.9C14.8167 19.7 15.1833 19.7 15.45 19.9L16.25 20.5V18.5366C15.859 18.6748 15.4383 18.75 15 18.75C14.5617 18.75 14.141 18.6748 13.75 18.5366ZM6 8.25H5.25V9.75H6H18H18.75V8.25H18H6ZM5.25 11.25H6H9H9.75V12.75H9H6H5.25V11.25ZM6 14.25H5.25V15.75H6H8H8.75V14.25H8H6Z" fill="black"/>
</svg>
