<svg width="24" height="24" viewBox="0 0 24 24" fill="none" xmlns="http://www.w3.org/2000/svg">
<path d="M16.0607 12L15 10.9393L11 14.9393L9 12.9393L7.93934 14L10.4697 16.5303C10.7626 16.8232 11.2374 16.8232 11.5303 16.5303L16.0607 12Z" fill="black"/>
<path fill-rule="evenodd" clip-rule="evenodd" d="M11 2.25C9.74122 2.25 8.67998 3.09575 8.35352 4.25H7C6.27065 4.25 5.57118 4.53973 5.05546 5.05546C4.53973 5.57118 4.25 6.27065 4.25 7V19C4.25 19.7293 4.53973 20.4288 5.05546 20.9445C5.57118 21.4603 6.27065 21.75 7 21.75H17C17.7293 21.75 18.4288 21.4603 18.9445 20.9445C19.4603 20.4288 19.75 19.7293 19.75 19V7C19.75 6.27065 19.4603 5.57118 18.9445 5.05546C18.4288 4.53973 17.7293 4.25 17 4.25H15.6465C15.32 3.09575 14.2588 2.25 13 2.25H11ZM11 3.75C10.3096 3.75 9.75 4.30964 9.75 5C9.75 5.69036 10.3096 6.25 11 6.25H13C13.6904 6.25 14.25 5.69036 14.25 5C14.25 4.30964 13.6904 3.75 13 3.75H11ZM17 5.75H15.6465C15.32 6.90425 14.2588 7.75 13 7.75H11C9.74122 7.75 8.67998 6.90425 8.35352 5.75H7C6.66848 5.75 6.35054 5.8817 6.11612 6.11612C5.8817 6.35054 5.75 6.66848 5.75 7V19C5.75 19.3315 5.8817 19.6495 6.11612 19.8839C6.35054 20.1183 6.66848 20.25 7 20.25H17C17.3315 20.25 17.6495 20.1183 17.8839 19.8839C18.1183 19.6495 18.25 19.3315 18.25 19V7C18.25 6.66848 18.1183 6.35054 17.8839 6.11612C17.6495 5.8817 17.3315 5.75 17 5.75Z" fill="black"/>
</svg>
