<svg width="24" height="24" viewBox="0 0 24 24" fill="none" xmlns="http://www.w3.org/2000/svg">
<path d="M7.76 14.25H6.25V15.75H7.76V14.25Z" fill="black"/>
<path fill-rule="evenodd" clip-rule="evenodd" d="M22.0606 21L21 22.0607L18.6356 19.6963C18.4257 19.7322 18.2128 19.7502 17.9992 19.75H6C5.00544 19.75 4.05161 19.3549 3.34835 18.6516C2.64509 17.9484 2.25 16.9946 2.25 16V8C2.25 6.72387 2.88691 5.59771 3.85985 4.92052L1.93933 3L2.99999 1.93934L22.0606 21ZM10.6893 11.75L13.1893 14.25H10.25V15.75H13.75V14.8107L17.1893 18.25H6C5.40326 18.25 4.83097 18.0129 4.40901 17.591C3.98705 17.169 3.75 16.5967 3.75 16V11.75H10.6893ZM9.18933 10.25L4.94913 6.0098C4.23523 6.38748 3.75 7.1377 3.75 8V10.25H9.18933Z" fill="black"/>
<path d="M14.25 10.25H20.25V7.88C20.25 6.92698 19.883 6.43875 19.4882 6.16072C19.0511 5.85297 18.4971 5.75 18.12 5.75H9V4.25H18.12C18.7029 4.25 19.5889 4.39703 20.3518 4.93428C21.157 5.50125 21.75 6.45301 21.75 7.88V15.5728C21.75 15.8109 21.7501 16.2238 21.6766 16.6499C21.6041 17.0703 21.4424 17.6183 21.0303 18.0303L19.9697 16.9697C20.0576 16.8817 20.1459 16.6996 20.1984 16.3951C20.2486 16.104 20.25 15.8041 20.25 15.56V11.75H14.25V10.25Z" fill="black"/>
</svg>
