<svg width="24" height="24" viewBox="0 0 24 24" fill="none" xmlns="http://www.w3.org/2000/svg">
<path d="M6.25 14.25H7.76V15.75H6.25V14.25Z" fill="black"/>
<path d="M10.25 14.25V15.75H13.75V14.25H10.25Z" fill="black"/>
<path fill-rule="evenodd" clip-rule="evenodd" d="M2.25 8C2.25 5.92893 3.92893 4.25 6 4.25H18C20.0711 4.25 21.75 5.92893 21.75 8V16C21.75 18.0711 20.0711 19.75 18 19.75H6C3.92893 19.75 2.25 18.0711 2.25 16V8ZM3.75 8C3.75 6.75736 4.75736 5.75 6 5.75H18C19.2426 5.75 20.25 6.75736 20.25 8V9.25H3.75V8ZM20.25 10.75V16C20.25 17.2426 19.2426 18.25 18 18.25H6C4.75736 18.25 3.75 17.2426 3.75 16V10.75H20.25Z" fill="black"/>
</svg>
