<svg width="24" height="24" viewBox="0 0 24 24" fill="none" xmlns="http://www.w3.org/2000/svg">
<path fill-rule="evenodd" clip-rule="evenodd" d="M6.25 20.75V19.25H8.25V16.75H4C3.0335 16.75 2.25 15.9665 2.25 15V5C2.25 4.0335 3.0335 3.25 4 3.25H20C20.9665 3.25 21.75 4.0335 21.75 5V15C21.75 15.9665 20.9665 16.75 20 16.75H15.75V19.25H17.75V20.75H6.25ZM3.75 5C3.75 4.86193 3.86193 4.75 4 4.75H20C20.1381 4.75 20.25 4.86193 20.25 5V15C20.25 15.1381 20.1381 15.25 20 15.25H4C3.86193 15.25 3.75 15.1381 3.75 15V5ZM14.25 16.75H9.75V19.25H14.25V16.75Z" fill="black"/>
</svg>
