<svg width="24" height="24" viewBox="0 0 24 24" fill="none" xmlns="http://www.w3.org/2000/svg">
<path fill-rule="evenodd" clip-rule="evenodd" d="M16.9716 3.24998C17.6504 3.20361 18.2744 3.49012 18.753 3.96869C19.2333 4.44905 19.562 5.11126 19.7302 5.8288C19.7321 5.8368 19.7338 5.84483 19.7354 5.85289L20.7354 10.8529C20.7451 10.9013 20.75 10.9506 20.75 11C20.75 11.7293 20.4603 12.4288 19.9445 12.9445C19.4288 13.4602 18.7293 13.75 18 13.75H15.75V18C15.75 18.7293 15.4603 19.4288 14.9445 19.9445C14.4288 20.4602 13.7293 20.75 13 20.75C12.2707 20.75 11.5712 20.4602 11.0555 19.9445C10.5397 19.4288 10.25 18.7293 10.25 18V17C10.25 16.138 9.90759 15.3114 9.2981 14.7019C8.6886 14.0924 7.86195 13.75 7 13.75H4C3.53587 13.75 3.09075 13.5656 2.76256 13.2374C2.43437 12.9092 2.25 12.4641 2.25 12V4.99998C2.25 4.53585 2.43437 4.09073 2.76256 3.76254C3.09075 3.43436 3.53587 3.24998 4 3.24998H6C6.46413 3.24998 6.90925 3.43436 7.23744 3.76254C7.35872 3.88382 7.46036 4.02107 7.54031 4.16935C8.22033 3.57839 9.09324 3.24998 10 3.24998H16.9716ZM7.75 6.99998V12.3095C8.73188 12.4665 9.64671 12.9292 10.3588 13.6412C11.2496 14.532 11.75 15.7402 11.75 17V18C11.75 18.3315 11.8817 18.6494 12.1161 18.8839C12.3505 19.1183 12.6685 19.25 13 19.25C13.3315 19.25 13.6495 19.1183 13.8839 18.8839C14.1183 18.6494 14.25 18.3315 14.25 18V13C14.25 12.5858 14.5858 12.25 15 12.25H18C18.3315 12.25 18.6495 12.1183 18.8839 11.8839C19.1028 11.665 19.2321 11.3732 19.2483 11.0656L18.2671 6.15976C18.1471 5.65591 17.9316 5.26862 17.6923 5.02935C17.4577 4.79473 17.2369 4.73254 17.0636 4.74728C17.0424 4.74908 17.0212 4.74998 17 4.74998H10C9.40326 4.74998 8.83097 4.98703 8.40901 5.40899C7.98705 5.83095 7.75 6.40324 7.75 6.99998ZM6.25 12.25V4.99998C6.25 4.93368 6.22366 4.87009 6.17678 4.8232C6.12989 4.77632 6.0663 4.74998 6 4.74998H4C3.9337 4.74998 3.87011 4.77632 3.82322 4.8232C3.77634 4.87009 3.75 4.93368 3.75 4.99998V12C3.75 12.0663 3.77634 12.1299 3.82322 12.1768C3.87011 12.2236 3.9337 12.25 4 12.25H6.25Z" fill="black"/>
</svg>
