<svg width="24" height="24" viewBox="0 0 24 24" fill="none" xmlns="http://www.w3.org/2000/svg">
<path d="M16.0607 9L15 7.93934L7.93934 15L9 16.0607L16.0607 9Z" fill="black"/>
<path d="M10 9.5C10 9.77615 9.77614 10 9.5 10C9.22386 10 9 9.77615 9 9.5C9 9.22386 9.22386 9 9.5 9C9.77614 9 10 9.22386 10 9.5Z" fill="black"/>
<path d="M14.5 15C14.7761 15 15 14.7761 15 14.5C15 14.2239 14.7761 14 14.5 14C14.2239 14 14 14.2239 14 14.5C14 14.7761 14.2239 15 14.5 15Z" fill="black"/>
<path fill-rule="evenodd" clip-rule="evenodd" d="M4.24997 8.19957C4.2497 8.58204 4.09834 8.94909 3.82885 9.22046L3.13114 9.91818L3.13038 9.91894C2.85504 10.1929 2.63653 10.5186 2.48737 10.8773C2.33808 11.2362 2.26123 11.6212 2.26123 12.01C2.26123 12.3988 2.33808 12.7838 2.48737 13.1427C2.63653 13.5014 2.85505 13.8271 3.1304 14.1011L3.13114 14.1018L3.82815 14.7988C4.09769 15.0702 4.2497 15.4377 4.24997 15.8202V16.82C4.24997 17.6024 4.56078 18.3527 5.11401 18.906C5.66724 19.4592 6.41758 19.77 7.19997 19.77H8.19954C8.58202 19.7702 8.94891 19.9216 9.22031 20.191L9.22114 20.1918L9.91815 20.8888L9.91928 20.89C10.1932 21.1651 10.5187 21.3835 10.8772 21.5326C11.2362 21.6819 11.6212 21.7587 12.01 21.7587C12.3988 21.7587 12.7837 21.6819 13.1427 21.5326C13.5013 21.3835 13.8269 21.165 14.1009 20.8898L14.1018 20.8888L14.7988 20.1918C15.0702 19.9222 15.4378 19.7702 15.8204 19.77H16.82C17.6024 19.77 18.3527 19.4592 18.9059 18.906C19.4592 18.3527 19.77 17.6024 19.77 16.82V15.8204C19.7702 15.4379 19.9216 15.0709 20.1912 14.7995L20.8888 14.1018L20.8897 14.1009C21.165 13.8269 21.3834 13.5013 21.5326 13.1427C21.6819 12.7838 21.7587 12.3988 21.7587 12.01C21.7587 11.6212 21.6819 11.2362 21.5326 10.8773C21.3835 10.5188 21.1651 10.1932 20.8899 9.91931L20.8888 9.91818L20.1918 9.22117L20.191 9.22035C19.9215 8.94894 19.7702 8.58205 19.77 8.19957V7.2C19.77 6.41761 19.4592 5.66727 18.9059 5.11404C18.3527 4.56081 17.6024 4.25 16.82 4.25L15.8204 4.25C15.4379 4.24974 15.0708 4.09834 14.7994 3.8288L14.1018 3.13117L14.1011 3.13043C13.8271 2.85509 13.5014 2.63656 13.1427 2.4874C12.7837 2.33812 12.3988 2.26126 12.01 2.26126C11.6212 2.26126 11.2362 2.33811 10.8772 2.4874C10.5186 2.63656 10.1929 2.85507 9.91891 3.13041L9.91815 3.13117L9.22114 3.82819C8.94976 4.09767 8.5822 4.24974 8.19973 4.25H7.19997C6.41758 4.25 5.66724 4.56081 5.11401 5.11404C4.74132 5.48673 4.47865 5.94887 4.3469 6.45H4.24997L4.24997 8.19957ZM11.4532 3.87242C11.6297 3.79904 11.8189 3.76126 12.01 3.76126C12.2011 3.76126 12.3903 3.79904 12.5667 3.87242C12.7432 3.9458 12.9034 4.05333 13.0382 4.18884L13.0396 4.19033L13.7396 4.89033L13.7411 4.89182C14.2935 5.44106 15.0406 5.74956 15.8195 5.75L16.82 5.75C17.2045 5.75 17.5734 5.90277 17.8453 6.1747C18.1172 6.44663 18.27 6.81544 18.27 7.2V8.2C18.2704 8.97894 18.5789 9.72651 19.1282 10.2788L19.1296 10.2803L19.8296 10.9803L19.8311 10.9818C19.9666 11.1166 20.0742 11.2768 20.1476 11.4532C20.2209 11.6297 20.2587 11.8189 20.2587 12.01C20.2587 12.2011 20.2209 12.3903 20.1476 12.5668C20.0742 12.7432 19.9666 12.9034 19.8311 13.0382L19.8296 13.0397L19.1296 13.7397L19.1282 13.7412C18.5789 14.2935 18.2704 15.0406 18.27 15.8196V16.82C18.27 17.2046 18.1172 17.5734 17.8453 17.8453C17.5734 18.1172 17.2045 18.27 16.82 18.27H15.82C15.041 18.2705 14.2935 18.5789 13.7411 19.1282L13.7396 19.1297L13.0396 19.8297L13.0382 19.8312C12.9034 19.9667 12.7432 20.0742 12.5667 20.1476C12.3903 20.221 12.2011 20.2587 12.01 20.2587C11.8189 20.2587 11.6297 20.221 11.4532 20.1476C11.2767 20.0742 11.1165 19.9667 10.9818 19.8312L10.2803 19.1297L10.2788 19.1282C9.72648 18.5789 8.97933 18.2705 8.2004 18.27H7.19997C6.81541 18.27 6.4466 18.1172 6.17467 17.8453C5.90274 17.5734 5.74997 17.2046 5.74997 16.82L5.74997 15.82C5.74953 15.0411 5.44103 14.2935 4.89179 13.7412L4.19031 13.0397L4.18881 13.0382C4.0533 12.9034 3.94577 12.7432 3.87239 12.5668C3.79901 12.3903 3.76123 12.2011 3.76123 12.01C3.76123 11.8189 3.79901 11.6297 3.87239 11.4532C3.94577 11.2768 4.0533 11.1166 4.18881 10.9818L4.1903 10.9803L4.8903 10.2803L4.89179 10.2788C5.44103 9.72651 5.74953 8.97936 5.74997 8.20043L5.74997 7.2C5.74997 6.81544 5.90274 6.44663 6.17467 6.1747C6.4466 5.90277 6.81541 5.75 7.19997 5.75H8.19997C8.97891 5.74956 9.72648 5.44106 10.2788 4.89182L10.2803 4.89033L10.9803 4.19033L10.9818 4.18884C11.1165 4.05333 11.2767 3.9458 11.4532 3.87242Z" fill="black"/>
</svg>
