<svg width="24" height="24" viewBox="0 0 24 24" fill="none" xmlns="http://www.w3.org/2000/svg">
<path d="M12.75 3C12.75 2.58579 12.4142 2.25 12 2.25C11.5858 2.25 11.25 2.58579 11.25 3V5.25H10C9.00544 5.25 8.05161 5.64509 7.34835 6.34835C6.64509 7.05161 6.25 8.00544 6.25 9C6.25 9.99456 6.64509 10.9484 7.34835 11.6517C8.05161 12.3549 9.00544 12.75 10 12.75H14C14.5967 12.75 15.169 12.9871 15.591 13.409C16.0129 13.831 16.25 14.4033 16.25 15C16.25 15.5967 16.0129 16.169 15.591 16.591C15.169 17.0129 14.5967 17.25 14 17.25H10.0173C9.57402 17.2279 9.14701 17.0751 8.79015 16.8108C8.42927 16.5435 8.15664 16.1743 8.00735 15.7507L7.75805 15.0433L6.34335 15.5419L6.59265 16.2493C6.84146 16.9553 7.29583 17.5706 7.89731 18.0161C8.49878 18.4617 9.21983 18.717 9.96765 18.7493C9.97843 18.7498 9.98921 18.75 10 18.75H11.25V21.75H12.75V18.75H14C14.9946 18.75 15.9484 18.3549 16.6517 17.6517C17.3549 16.9484 17.75 15.9946 17.75 15C17.75 14.0054 17.3549 13.0516 16.6517 12.3483C15.9484 11.6451 14.9946 11.25 14 11.25H10C9.40326 11.25 8.83097 11.0129 8.40901 10.591C7.98705 10.169 7.75 9.59674 7.75 9C7.75 8.40326 7.98705 7.83097 8.40901 7.40901C8.83097 6.98705 9.40326 6.75 10 6.75H13.9827C14.426 6.77211 14.853 6.92486 15.2098 7.1892C15.5707 7.45653 15.8434 7.82573 15.9926 8.2493L16.2419 8.95666L17.6567 8.45805L17.4074 7.7507C17.1585 7.04475 16.7042 6.4294 16.1027 5.98387C15.5012 5.53833 14.7802 5.28299 14.0324 5.2507C14.0216 5.25023 14.0108 5.25 14 5.25H12.75V3Z" fill="black"/>
</svg>
