<svg width="24" height="24" viewBox="0 0 24 24" fill="none" xmlns="http://www.w3.org/2000/svg">
<path fill-rule="evenodd" clip-rule="evenodd" d="M16.9697 2.96965C17.5081 2.43118 18.2385 2.12866 19 2.12866C19.7615 2.12866 20.4918 2.43118 21.0303 2.96965C21.5688 3.50813 21.8713 4.23846 21.8713 4.99998C21.8713 5.7615 21.5688 6.49184 21.0303 7.03031L19.5323 8.52837C19.5316 8.52902 19.531 8.52967 19.5303 8.53031C19.5297 8.53096 19.529 8.53161 19.5284 8.53226L12.5303 15.5303C12.3897 15.671 12.1989 15.75 12 15.75H9C8.58579 15.75 8.25 15.4142 8.25 15V12C8.25 11.8011 8.32902 11.6103 8.46967 11.4697L15.4697 4.46965L16.9697 2.96965ZM16 6.06064L9.75 12.3106V14.25H11.6893L17.9393 7.99998L16 6.06064ZM19 6.93932L17.0607 4.99998L18.0303 4.03031C18.2875 3.77314 18.6363 3.62866 19 3.62866C19.3637 3.62866 19.7125 3.77314 19.9697 4.03031C20.2268 4.28748 20.3713 4.63629 20.3713 4.99998C20.3713 5.36368 20.2268 5.71248 19.9697 5.96965L19 6.93932ZM4.05546 7.05544C4.57118 6.53972 5.27065 6.24998 6 6.24998H9C9.41421 6.24998 9.75 6.58577 9.75 6.99998C9.75 7.4142 9.41421 7.74998 9 7.74998H6C5.66848 7.74998 5.35054 7.88168 5.11612 8.1161C4.8817 8.35052 4.75 8.66846 4.75 8.99999V18C4.75 18.3315 4.8817 18.6495 5.11612 18.8839C5.35054 19.1183 5.66848 19.25 6 19.25H15C15.3315 19.25 15.6495 19.1183 15.8839 18.8839C16.1183 18.6495 16.25 18.3315 16.25 18V15C16.25 14.5858 16.5858 14.25 17 14.25C17.4142 14.25 17.75 14.5858 17.75 15V18C17.75 18.7293 17.4603 19.4288 16.9445 19.9445C16.4288 20.4603 15.7293 20.75 15 20.75H6C5.27065 20.75 4.57118 20.4603 4.05546 19.9445C3.53973 19.4288 3.25 18.7293 3.25 18V8.99999C3.25 8.27064 3.53973 7.57117 4.05546 7.05544Z" fill="black"/>
</svg>
