<svg width="24" height="24" viewBox="0 0 24 24" fill="none" xmlns="http://www.w3.org/2000/svg">
<path fill-rule="evenodd" clip-rule="evenodd" d="M3.85844 6.34112C4.02782 5.85156 4.49288 5.5 5.04004 5.5H19.04C19.6726 5.5 20.1954 5.96985 20.2785 6.5796L12.0121 12.0905L3.93251 6.38727C3.90844 6.37028 3.8837 6.3549 3.85844 6.34112ZM3.79004 8.12276V16.75C3.79004 17.4404 4.34968 18 5.04004 18H19.04C19.7304 18 20.29 17.4404 20.29 16.75V8.3747L12.416 13.624C12.158 13.796 11.8208 13.7915 11.5675 13.6127L3.79004 8.12276ZM5.04004 4C3.52126 4 2.29004 5.23122 2.29004 6.75V16.75C2.29004 18.2688 3.52126 19.5 5.04004 19.5H19.04C20.5588 19.5 21.79 18.2688 21.79 16.75V6.75C21.79 5.23122 20.5588 4 19.04 4H5.04004Z" fill="black"/>
</svg>
