<svg width="24" height="24" viewBox="0 0 24 24" fill="none" xmlns="http://www.w3.org/2000/svg">
<path fill-rule="evenodd" clip-rule="evenodd" d="M8.5 4.75C7.48944 4.75 6.51547 5.10994 5.75 5.75962V12.9502C6.58657 12.4947 7.53085 12.25 8.5 12.25C10.0051 12.25 11.4502 12.8401 12.525 13.8937C13.3194 14.6724 14.3876 15.1086 15.5 15.1086C16.5106 15.1086 17.4845 14.7486 18.25 14.099V6.90834C17.4134 7.36388 16.4692 7.60857 15.5 7.60857C13.9949 7.60857 12.5498 7.01845 11.475 5.96489C10.6806 5.18618 9.61245 4.75 8.5 4.75ZM19.75 14.4287V5.42928C19.75 5.01507 19.4142 4.67928 19 4.67928C18.795 4.67928 18.6092 4.76154 18.4738 4.89485C17.6795 5.67283 16.6119 6.10857 15.5 6.10857C14.3876 6.10857 13.3194 5.67239 12.525 4.89368C11.4502 3.84012 10.0051 3.25 8.5 3.25C7.10028 3.25 5.75245 3.7604 4.70606 4.67928H4.25V5.42928V14.4287C4.25 14.4291 4.25 14.4295 4.25 14.4299V21.4293V22.1793H5.75V21.4293V14.7596C6.51547 14.1099 7.48944 13.75 8.5 13.75C9.61245 13.75 10.6806 14.1862 11.475 14.9649C12.5498 16.0184 13.9949 16.6086 15.5 16.6086C17.0051 16.6086 18.4502 16.0184 19.525 14.9649C19.6744 14.8184 19.7496 14.6247 19.75 14.4308C19.75 14.4303 19.75 14.4298 19.75 14.4293V14.4287Z" fill="black"/>
</svg>
