<svg width="24" height="24" viewBox="0 0 24 24" fill="none" xmlns="http://www.w3.org/2000/svg">
<path fill-rule="evenodd" clip-rule="evenodd" d="M10.713 3.30709C10.9932 3.191 11.3158 3.25517 11.5303 3.46967C12.1484 4.0877 12.9532 5.48004 13.3527 7.08367C13.706 8.50127 13.7717 10.2054 13.0035 11.7625C13.254 11.8703 13.4654 11.8686 13.6735 11.794C14.1101 11.6374 14.765 11.0887 15.6416 9.61634C15.7638 9.41095 15.9767 9.27615 16.2146 9.2534C16.4526 9.23066 16.6871 9.3227 16.8461 9.5012C17.8608 10.6405 18.75 12.2189 18.75 14C18.75 15.7902 18.0388 17.5071 16.773 18.773C15.5071 20.0388 13.7902 20.75 12 20.75C10.2098 20.75 8.4929 20.0388 7.22703 18.773C5.96116 17.5071 5.25 15.7902 5.25 14C5.25 11.9752 6.16882 10.4598 7.47347 9.11897L7.47389 9.11854C7.62375 8.96477 7.77628 8.81374 7.92883 8.66268C9.08873 7.51417 10.25 6.36429 10.25 4C10.25 3.69665 10.4327 3.42318 10.713 3.30709ZM11.4461 6.12675C10.9237 7.83123 9.82869 8.90444 8.96637 9.74956C8.81884 9.89415 8.67813 10.0321 8.54826 10.1653M11.4461 6.12675C11.6191 6.52215 11.7781 6.96813 11.8973 7.44633C12.2435 8.8361 12.2154 10.3416 11.3786 11.5801C11.1624 11.9 11.2244 12.3318 11.522 12.5779C12.2211 13.1562 13.1238 13.5847 14.1798 13.206C14.9301 12.9369 15.6351 12.2946 16.3426 11.2942C16.8884 12.1125 17.25 13.0437 17.25 14C17.25 15.3924 16.6969 16.7277 15.7123 17.7123C14.7277 18.6969 13.3924 19.25 12 19.25C10.6076 19.25 9.27226 18.6969 8.28769 17.7123C7.30312 16.7277 6.75 15.3924 6.75 14C6.75 12.5049 7.40103 11.3445 8.54811 10.1655" fill="black"/>
</svg>
