<svg width="24" height="24" viewBox="0 0 24 24" fill="none" xmlns="http://www.w3.org/2000/svg">
<path fill-rule="evenodd" clip-rule="evenodd" d="M4.76138 7.25C4.43003 6.73144 4.25 6.125 4.25 5.49999C4.25 4.63804 4.59241 3.81139 5.2019 3.2019C5.80984 2.59395 6.63384 2.25174 7.49342 2.25C8.72414 2.23073 9.86213 2.83246 10.7702 3.84143C11.2484 4.37279 11.6608 5.01286 12 5.73104C12.3392 5.01286 12.7516 4.37279 13.2298 3.84143C14.1379 2.83246 15.2759 2.23073 16.5066 2.25C17.3662 2.25174 18.1902 2.59395 18.7981 3.2019C19.4076 3.81139 19.75 4.63804 19.75 5.49999C19.75 6.125 19.57 6.73144 19.2386 7.25H20C20.9665 7.25 21.75 8.0335 21.75 9V11C21.75 11.9665 20.9665 12.75 20 12.75H19.75V19C19.75 19.7293 19.4603 20.4288 18.9445 20.9445C18.4288 21.4603 17.7293 21.75 17 21.75H7C6.27065 21.75 5.57118 21.4603 5.05546 20.9445C4.53973 20.4288 4.25 19.7293 4.25 19V12.75H4C3.0335 12.75 2.25 11.9665 2.25 11V9C2.25 8.0335 3.0335 7.25 4 7.25H4.76138ZM7.51307 3.74988C8.20923 3.73775 8.95951 4.07182 9.65527 4.84488C10.1939 5.44333 10.6592 6.26395 11.0002 7.25L7.5 7.24999C7.03587 7.24999 6.59075 7.06562 6.26256 6.73743C5.93437 6.40924 5.75 5.96412 5.75 5.49999C5.75 5.03586 5.93437 4.59074 6.26256 4.26256C6.59075 3.93437 7.03587 3.74999 7.5 3.74999L7.51307 3.74988ZM16.5 7.24999C16.9641 7.24999 17.4092 7.06562 17.7374 6.73743C18.0656 6.40924 18.25 5.96412 18.25 5.49999C18.25 5.03586 18.0656 4.59074 17.7374 4.26256C17.4092 3.93437 16.9641 3.74999 16.5 3.74999H16.4869C15.7908 3.73786 15.0405 4.07182 14.3447 4.84488C13.8061 5.44333 13.3408 6.26395 12.9998 7.25L16.5 7.24999ZM3.75 9C3.75 8.86193 3.86193 8.75 4 8.75H11.25V11.25H4C3.86193 11.25 3.75 11.1381 3.75 11V9ZM7 20.25H11.25V12.75H5.75V19C5.75 19.3315 5.8817 19.6495 6.11612 19.8839C6.35054 20.1183 6.66848 20.25 7 20.25ZM17 20.25H12.75V12.75H18.25V19C18.25 19.3315 18.1183 19.6495 17.8839 19.8839C17.6495 20.1183 17.3315 20.25 17 20.25ZM12.75 11.25V8.75H20C20.1381 8.75 20.25 8.86193 20.25 9V11C20.25 11.1381 20.1381 11.25 20 11.25H12.75Z" fill="black"/>
</svg>
