<svg width="100" height="100" viewBox="0 0 100 100" fill="none" xmlns="http://www.w3.org/2000/svg">
<circle cx="50" cy="50.0002" r="50" fill="#FFCC00"/>
<mask id="mask0" mask-type="alpha" maskUnits="userSpaceOnUse" x="0" y="0" width="100" height="101">
<circle cx="50" cy="50.0002" r="50" fill="#CCCCCC"/>
</mask>
<g mask="url(#mask0)">
<path d="M33.5034 34.5842H22.0489C19.5017 34.5842 17.4291 36.644 17.4291 39.1755C17.4291 41.7071 19.5017 43.7669 22.0489 43.7669H33.5034C36.0507 43.7669 38.1232 41.7071 38.1232 39.1755C38.1232 36.6283 36.0507 34.5842 33.5034 34.5842Z" fill="#00A0DE"/>
<path d="M77.4706 34.5842H66.016C63.4688 34.5842 61.3962 36.644 61.3962 39.1755C61.3962 41.7071 63.4688 43.7669 66.016 43.7669H77.4706C80.0178 43.7669 82.0904 41.7071 82.0904 39.1755C82.0746 36.6283 80.0178 34.5842 77.4706 34.5842Z" fill="#00A0DE"/>
<path d="M79.217 39.2159H21.2306C16.2331 39.2159 11.7751 43.3078 10.1251 49.4355L-0.980347 90.5605L-0.853427 94.1178H100L99.8572 90.5605L90.4811 50.0729C88.9898 43.6163 84.4207 39.2159 79.217 39.2159Z" fill="#EC3413"/>
<path d="M27.7762 99.4921C39.5111 99.4921 49.0241 90.0377 49.0241 78.375C49.0241 66.7123 39.5111 57.2579 27.7762 57.2579C16.0413 57.2579 6.52832 66.7123 6.52832 78.375C6.52832 90.0377 16.0413 99.4921 27.7762 99.4921Z" fill="#EC3413"/>
<path d="M71.7275 99.4921C83.4624 99.4921 92.9754 90.0377 92.9754 78.375C92.9754 66.7123 83.4624 57.2579 71.7275 57.2579C59.9926 57.2579 50.4796 66.7123 50.4796 78.375C50.4796 90.0377 59.9926 99.4921 71.7275 99.4921Z" fill="#EC3413"/>
<path d="M27.7763 89.4603C33.9364 89.4603 38.9302 84.4972 38.9302 78.375C38.9302 72.2527 33.9364 67.2897 27.7763 67.2897C21.6161 67.2897 16.6223 72.2527 16.6223 78.375C16.6223 84.4972 21.6161 89.4603 27.7763 89.4603Z" fill="white"/>
<path d="M71.7276 89.4603C77.8877 89.4603 82.8815 84.4972 82.8815 78.375C82.8815 72.2527 77.8877 67.2897 71.7276 67.2897C65.5674 67.2897 60.5736 72.2527 60.5736 78.375C60.5736 84.4972 65.5674 89.4603 71.7276 89.4603Z" fill="white"/>
<path d="M27.7762 48.4839V58.3114" stroke="black" stroke-width="8" stroke-miterlimit="10" stroke-linecap="round" stroke-linejoin="round"/>
<path d="M32.7125 53.3899H22.8242" stroke="black" stroke-width="8" stroke-miterlimit="10" stroke-linecap="round" stroke-linejoin="round"/>
<path d="M64.4657 58.2328C67.157 58.2328 69.3386 56.0645 69.3386 53.3898C69.3386 50.7151 67.157 48.5469 64.4657 48.5469C61.7745 48.5469 59.5928 50.7151 59.5928 53.3898C59.5928 56.0645 61.7745 58.2328 64.4657 58.2328Z" fill="white"/>
<path d="M79.0055 58.2328C81.6968 58.2328 83.8784 56.0645 83.8784 53.3898C83.8784 50.7151 81.6968 48.5469 79.0055 48.5469C76.3143 48.5469 74.1326 50.7151 74.1326 53.3898C74.1326 56.0645 76.3143 58.2328 79.0055 58.2328Z" fill="white"/>
<path d="M44.1177 27.687V12.5066C44.1177 11.1426 45.6135 10.3243 46.7314 11.0624L58.0678 18.6526C59.0755 19.3266 59.0755 20.851 58.0678 21.525L46.7314 29.1152C45.6135 29.8855 44.1177 29.0671 44.1177 27.687Z" fill="black"/>
</g>
</svg>
