<svg width="100" height="100" viewBox="0 0 100 100" fill="none" xmlns="http://www.w3.org/2000/svg">
<circle cx="50" cy="50" r="50" fill="#00A0DE"/>
<mask id="mask0" mask-type="alpha" maskUnits="userSpaceOnUse" x="0" y="0" width="100" height="100">
<circle cx="50" cy="50" r="50" fill="#00A0DE"/>
</mask>
<g mask="url(#mask0)">
<path d="M46.0789 0H-3.92114V100H46.0789V0Z" fill="#FFCC00"/>
<path d="M46.0789 100H54.9025L54.9025 0H46.0789L46.0789 100Z" fill="white"/>
<path d="M50.7504 68.8559H50.293C49.392 68.8559 48.6573 68.1258 48.6573 67.2303V52.3796C48.6573 51.4841 49.392 50.754 50.293 50.754H50.7504C51.6515 50.754 52.3861 51.4841 52.3861 52.3796V67.2303C52.3861 68.1258 51.6515 68.8559 50.7504 68.8559Z" fill="black"/>
<path d="M30.0767 48.3706C27.9975 48.3706 26.043 47.8608 24.3103 46.9516V67.9466C24.3103 69.4757 25.5578 70.7294 27.1103 70.7294H32.9322C34.4708 70.7294 35.7322 69.4895 35.7322 67.9466V47.0067C34.0272 47.8746 32.1143 48.3706 30.0767 48.3706Z" fill="#EC3413"/>
<path d="M35.7183 47.0069V30.2137C35.7183 28.6845 34.4707 27.4309 32.9183 27.4309H27.0964C25.5578 27.4309 24.2964 28.6708 24.2964 30.2137V46.9518C26.0152 47.8611 27.9697 48.3708 30.0628 48.3708C32.1143 48.3708 34.0272 47.8748 35.7183 47.0069Z" fill="black"/>
<path d="M29.9658 46.0839C35.6309 46.0839 40.2233 41.5197 40.2233 35.8895C40.2233 30.2593 35.6309 25.6951 29.9658 25.6951C24.3007 25.6951 19.7083 30.2593 19.7083 35.8895C19.7083 41.5197 24.3007 46.0839 29.9658 46.0839Z" fill="#EC3413"/>
<path d="M30.1458 66.8999H29.7161C28.926 66.8999 28.2883 66.2662 28.2883 65.4809V56.0029C28.2883 55.2176 28.926 54.5839 29.7161 54.5839H30.1458C30.9359 54.5839 31.5735 55.2176 31.5735 56.0029V65.4809C31.5874 66.2662 30.9359 66.8999 30.1458 66.8999Z" fill="white"/>
<path d="M29.938 57.408C31.7217 57.408 33.1677 55.9709 33.1677 54.1981C33.1677 52.4254 31.7217 50.9883 29.938 50.9883C28.1543 50.9883 26.7083 52.4254 26.7083 54.1981C26.7083 55.9709 28.1543 57.408 29.938 57.408Z" fill="white"/>
</g>
</svg>
