<svg width="228" height="156" viewBox="0 0 228 156" fill="none" xmlns="http://www.w3.org/2000/svg">
<mask id="mask0" mask-type="alpha" maskUnits="userSpaceOnUse" x="0" y="0" width="228" height="156">
<path d="M0 114C0 51.0395 51.0395 0 114 0V0C176.96 0 228 51.0395 228 114V156H0V114Z" fill="#E63312"/>
</mask>
<g mask="url(#mask0)">
<rect width="228" height="156" fill="#00A0DE"/>
<path d="M133.401 -19.9812H-18.2065V157.757H133.401V-19.9812Z" fill="#FFCC00"/>
<path d="M133.394 157.738H152.206L152.206 -20.0001H133.394L133.394 157.738Z" fill="white"/>
<path d="M143.439 121.012H142.175C139.685 121.012 137.654 118.982 137.654 116.491V75.1891C137.654 72.6987 139.685 70.6681 142.175 70.6681H143.439C145.93 70.6681 147.96 72.6987 147.96 75.1891V116.491C147.96 118.982 145.93 121.012 143.439 121.012Z" fill="black"/>
<path d="M91.7161 80.3994C85.9691 80.3994 80.5668 78.9818 75.7776 76.4531V134.843C75.7776 139.096 79.2258 142.583 83.517 142.583H99.6088C103.862 142.583 107.348 139.135 107.348 134.843V76.6064C102.636 79.0201 97.3483 80.3994 91.7161 80.3994Z" fill="#EC3413"/>
<path d="M107.31 76.6064V29.9019C107.31 25.649 103.862 22.1625 99.5705 22.1625H83.4787C79.2258 22.1625 75.7393 25.6107 75.7393 29.9019V76.4532C80.4902 78.9819 85.8924 80.3995 91.6778 80.3995C97.3483 80.3995 102.636 79.0202 107.31 76.6064Z" fill="black"/>
<path d="M91.4099 74.0396C107.068 74.0396 119.762 61.3459 119.762 45.6874C119.762 30.0289 107.068 17.3352 91.4099 17.3352C75.7513 17.3352 63.0576 30.0289 63.0576 45.6874C63.0576 61.3459 75.7513 74.0396 91.4099 74.0396Z" fill="#EC3413"/>
<path d="M91.9075 131.932H90.7198C88.5359 131.932 86.7734 130.17 86.7734 127.986V101.626C86.7734 99.4418 88.5359 97.6794 90.7198 97.6794H91.9075C94.0914 97.6794 95.8538 99.4418 95.8538 101.626V127.986C95.8921 130.17 94.0914 131.932 91.9075 131.932Z" fill="white"/>
<path d="M91.3329 105.534C96.2632 105.534 100.26 101.537 100.26 96.6067C100.26 91.6764 96.2632 87.6796 91.3329 87.6796C86.4026 87.6796 82.4058 91.6764 82.4058 96.6067C82.4058 101.537 86.4026 105.534 91.3329 105.534Z" fill="white"/>
</g>
</svg>
