<svg width="228" height="156" viewBox="0 0 228 156" fill="none" xmlns="http://www.w3.org/2000/svg">
<mask id="mask0" mask-type="alpha" maskUnits="userSpaceOnUse" x="0" y="0" width="228" height="156">
<path d="M0 114C0 51.0395 51.0395 0 114 0V0C176.96 0 228 51.0395 228 114V156H0V114Z" fill="#E63312"/>
</mask>
<g mask="url(#mask0)">
<rect width="228" height="156" fill="#FFCC00"/>
<path d="M162.32 80.4967C161.175 80.4967 160.065 79.7681 159.683 78.5883L151.633 54.5766C147.92 43.5076 138.413 39.5519 130.744 39.5519C123.076 39.5519 113.568 43.5076 109.855 54.5766L101.805 78.5883C101.32 80.0457 99.758 80.809 98.3007 80.3232C96.8433 79.8375 96.08 78.276 96.5657 76.8186L104.616 52.8069C108.433 41.3562 118.704 34 130.779 34C142.854 34 153.09 41.3909 156.942 52.8069L164.992 76.8186C165.478 78.276 164.68 79.8375 163.257 80.3232C162.91 80.462 162.633 80.4967 162.32 80.4967Z" fill="white"/>
<mask id="mask1" mask-type="alpha" maskUnits="userSpaceOnUse" x="39" y="65" width="150" height="139">
<path d="M180.969 65.8882H47C42.5817 65.8882 39 69.4699 39 73.8882V195.019C39 199.437 42.5817 203.019 47 203.019H180.969C185.388 203.019 188.969 199.437 188.969 195.019V73.8882C188.969 69.4699 185.388 65.8882 180.969 65.8882Z" fill="#E63312"/>
</mask>
<g mask="url(#mask1)">
<rect x="37" y="63" width="156" height="99" fill="#EC3413"/>
<path d="M188.969 65.8881H130.64V203.019H188.969V65.8881Z" fill="#FFCC00"/>
<path d="M159.857 188.237L130.744 203.019V65.8881L159.857 80.6699V188.237Z" fill="#00A0DE"/>
<path d="M188.969 203.019L159.857 188.237V80.6699L188.969 65.8881V203.019Z" fill="black"/>
</g>
<path d="M116.449 80.4968C115.304 80.4968 114.193 79.7681 113.811 78.5883L105.761 54.5766C102.048 43.5076 92.541 39.5519 84.8725 39.5519C77.204 39.5519 67.6964 43.5076 63.9836 54.5766L55.9335 78.5883C55.4477 80.0457 53.8862 80.8091 52.4289 80.3233C50.9715 79.8375 50.2081 78.276 50.6939 76.8187L58.7441 52.8069C62.561 41.391 72.8319 34.0001 84.8725 34.0001C96.9477 34.0001 107.184 41.391 111.036 52.8069L119.086 76.8187C119.572 78.276 118.773 79.8375 117.351 80.3233C117.038 80.4621 116.761 80.4968 116.449 80.4968Z" fill="black"/>
</g>
</svg>
