<svg width="160" height="160" viewBox="0 0 160 160" fill="none" xmlns="http://www.w3.org/2000/svg">
<circle cx="80" cy="80.0002" r="80" fill="#FFCC00"/>
<mask id="mask0" mask-type="alpha" maskUnits="userSpaceOnUse" x="0" y="0" width="160" height="161">
<circle cx="80" cy="80.0002" r="80" fill="#CCCCCC"/>
</mask>
<g mask="url(#mask0)">
<path d="M103.885 139.787H105.994V63.0162C105.994 57.8982 101.899 53.7359 96.7496 53.5818C96.6565 53.5818 96.5635 53.5818 96.4704 53.5818H40.0097C37.0006 53.5818 34.5808 55.9866 34.5808 58.9773V130.907C34.5808 133.898 37.0006 136.303 40.0097 136.303H96.4704C96.5635 136.303 96.6565 136.303 96.7496 136.303C99.6347 136.364 102.179 137.721 103.885 139.787Z" fill="white"/>
<path d="M178.182 53.7053H121.722C121.629 53.7053 121.536 53.7053 121.443 53.7053C116.324 53.8595 112.198 58.0217 112.198 63.1397V139.756H114.463C116.138 137.783 118.651 136.488 121.443 136.426C121.536 136.426 121.629 136.426 121.722 136.426H178.182C181.192 136.426 183.611 134.021 183.611 131.031V59.1008C183.611 56.1102 181.192 53.7053 178.182 53.7053Z" fill="white"/>
<path d="M109.034 136.827H109.096V56.5726C109.096 51.547 105.063 47.4465 100.038 47.2923C99.9447 47.2923 99.8516 47.2923 99.7585 47.2923H49.1611C46.214 47.2923 43.8253 49.6663 43.8253 52.5953V123.23C43.8253 126.159 46.214 128.533 49.1611 128.533H99.7585C99.8516 128.533 99.9447 128.533 100.038 128.533C104.753 128.656 108.569 132.264 109.034 136.827Z" fill="#00A0DE"/>
<path d="M169.031 47.4464H118.434C118.341 47.4464 118.248 47.4464 118.155 47.4464C113.129 47.6006 109.096 51.6703 109.096 56.7267V136.827H109.158C109.717 132.325 113.501 128.811 118.155 128.656C118.248 128.656 118.341 128.656 118.434 128.656H169.031C171.978 128.656 174.367 126.282 174.367 123.353V52.7494C174.367 49.8204 171.978 47.4464 169.031 47.4464Z" fill="#EC3413"/>
<path d="M130.223 47.4464L75.903 107.784V111.144H82.6348L139.964 47.4464H130.223Z" fill="black"/>
<path d="M84.9612 35.3915H75.0341V109.695C75.0341 112.408 77.2677 114.628 79.9976 114.628C82.7276 114.628 84.9612 112.408 84.9612 109.695V35.3915Z" fill="#EC3413"/>
<path d="M85.2714 43.9628V18.9585C85.2714 16.2761 83.0998 14.1179 80.4009 14.1179H79.5633C76.8643 14.1179 74.6927 16.2761 74.6927 18.9585V43.9628H85.2714Z" fill="#00A0DE"/>
</g>
</svg>
