<svg width="228" height="156" viewBox="0 0 228 156" fill="none" xmlns="http://www.w3.org/2000/svg">
<mask id="mask0" mask-type="alpha" maskUnits="userSpaceOnUse" x="0" y="0" width="228" height="156">
<path d="M0 114C0 51.0395 51.0395 0 114 0V0C176.96 0 228 51.0395 228 114V156H0V114Z" fill="#E63312"/>
</mask>
<g mask="url(#mask0)">
<rect width="228" height="156" fill="#FFCC00"/>
<path d="M302.962 5.13428V9.30066H276.778H230.757H230.566C229.419 13.7728 225.329 17.0983 220.513 17.0983L198.535 14.996L191.348 14.308L187.106 10.3327C186.762 10.0269 186.494 9.6829 186.265 9.30066C185.577 8.26862 185.309 7.04546 185.424 5.86053C178.964 6.05164 172.16 6.43388 165.203 7.00724C123.807 10.4474 76.0275 20.9589 50.1119 43.702C53.9342 45.6896 56.5717 49.7031 56.5717 54.3664V72.3316C56.5717 78.9443 51.1821 84.3338 44.5694 84.3338H31C31.0764 91.0612 31.7645 97.6739 33.0259 104.095C34.249 110.288 39.7532 114.722 46.1366 114.722H63.1079C61.579 109.6 60.7763 104.172 60.7763 98.5148C60.7763 67.0949 86.3097 41.5997 117.768 41.7526C148.614 41.8673 173.88 66.9038 174.301 97.7503C174.377 103.675 173.536 109.37 171.969 114.722H198.573H238.631H303L302.962 5.13428Z" fill="#EC3413"/>
<path d="M92.8456 129.973C80.4994 131.196 72.2812 133.336 72.2812 135.783C72.2812 139.567 91.8136 142.625 115.895 142.625C139.975 142.625 159.508 139.567 159.508 135.783C159.508 133.528 152.551 131.502 141.81 130.279C135.159 135.592 126.712 138.764 117.538 138.764C108.173 138.764 99.573 135.477 92.8456 129.973Z" fill="black"/>
<path d="M187.411 2.15264L200.751 -8.62645C201.172 -8.97046 201.592 -9.23803 202.013 -9.5056L256.443 -93.9036H230.222L165.203 7.00705C172.16 6.43369 178.964 6.05145 185.424 5.86034C185.577 4.48428 186.226 3.10823 187.411 2.15264Z" fill="#00A0DE"/>
<path d="M207.288 -10.9199H220.551C226.285 -10.9199 230.948 -6.25658 230.948 -0.484803V5.09586V6.62481C230.948 7.50396 230.833 8.3831 230.642 9.22402C230.642 9.26224 230.642 9.26225 230.642 9.30047H230.833H276.778H303V5.13409V-93.9036H276.778H256.443L202.051 -9.46738C203.618 -10.423 205.415 -10.9199 207.288 -10.9199Z" fill="black"/>
<path d="M56.5717 72.2932V54.328C56.5717 49.7029 53.9342 45.6895 50.1119 43.6636C38.2625 54.0987 31 67.0565 31 83.034C31 83.4545 31 83.875 31 84.2954H44.5312C51.1821 84.2954 56.5717 78.9059 56.5717 72.2932Z" fill="white"/>
<path d="M117.768 41.7141C86.3101 41.5994 60.7766 67.0564 60.7766 98.4763C60.7766 104.095 61.6175 109.523 63.1083 114.683C63.1083 114.721 63.1465 114.798 63.1465 114.836H81.5321C81.4939 114.798 81.4939 114.721 81.4556 114.683C79.5445 110.096 78.4742 105.013 78.4742 99.7377C78.4742 78.1795 95.9424 60.7113 117.501 60.7113C139.059 60.7113 156.527 78.1795 156.527 99.7377C156.527 105.051 155.457 110.096 153.546 114.683C153.507 114.721 153.507 114.798 153.469 114.836H171.855C171.855 114.798 171.893 114.721 171.893 114.683C173.498 109.332 174.301 103.598 174.225 97.7118C173.881 66.8653 148.576 41.867 117.768 41.7141Z" fill="black"/>
<path d="M156.527 99.7378C156.527 78.1797 139.059 60.7114 117.501 60.7114C95.9424 60.7114 78.4741 78.1797 78.4741 99.7378C78.4741 105.051 79.5444 110.096 81.4556 114.683C81.4938 114.722 81.4938 114.798 81.532 114.836C84.0166 120.761 87.9536 125.959 92.8845 129.973C99.6118 135.477 108.174 138.764 117.539 138.764C126.712 138.764 135.16 135.592 141.811 130.279C146.895 126.227 150.985 120.914 153.546 114.836C153.584 114.798 153.584 114.722 153.622 114.683C155.495 110.096 156.527 105.051 156.527 99.7378ZM137.339 114.836C132.79 120.799 125.604 124.66 117.501 124.66C109.397 124.66 102.211 120.799 97.6624 114.836C97.6242 114.798 97.586 114.722 97.5478 114.683C94.4134 110.517 92.5787 105.357 92.5787 99.7378C92.5787 85.9773 103.74 74.816 117.501 74.816C131.261 74.816 142.422 85.9773 142.422 99.7378C142.422 105.357 140.588 110.517 137.453 114.683C137.415 114.722 137.377 114.798 137.339 114.836Z" fill="white"/>
<path d="M117.5 74.816C103.74 74.816 92.5784 85.9773 92.5784 99.7378C92.5784 105.357 94.4131 110.517 97.5475 114.683C97.5857 114.722 97.6239 114.798 97.6621 114.836C102.211 120.799 109.397 124.66 117.5 124.66C125.604 124.66 132.79 120.799 137.338 114.836C137.377 114.798 137.415 114.722 137.453 114.683C140.587 110.517 142.422 105.357 142.422 99.7378C142.46 85.9773 131.299 74.816 117.5 74.816Z" fill="#00A0DE"/>
<path d="M230.91 6.66316V5.13421V-0.446455C230.91 -6.21824 226.247 -10.8815 220.513 -10.8815H207.25C205.415 -10.8815 203.618 -10.3846 202.051 -9.46725C201.593 -9.19969 201.172 -8.93212 200.79 -8.58811L187.45 2.19098C186.265 3.14657 185.577 4.52263 185.462 5.89868C185.348 7.08362 185.615 8.30678 186.303 9.33882C186.532 9.68283 186.8 10.0268 187.144 10.3709L191.387 14.3461L198.573 15.0342L220.552 17.1365C225.368 17.1365 229.419 13.811 230.604 9.33882C230.604 9.3006 230.604 9.30059 230.604 9.26237C230.796 8.42144 230.91 7.5423 230.91 6.66316Z" fill="white"/>
</g>
</svg>
