<svg width="160" height="160" viewBox="0 0 160 160" fill="none" xmlns="http://www.w3.org/2000/svg">
<circle cx="80" cy="80.0002" r="80" fill="#FFCC00"/>
<mask id="mask0" mask-type="alpha" maskUnits="userSpaceOnUse" x="0" y="0" width="160" height="161">
<circle cx="80" cy="80.0002" r="80" fill="#CCCCCC"/>
</mask>
<g mask="url(#mask0)">
<path d="M53.6054 55.3345H35.2781C31.2026 55.3345 27.8865 58.6303 27.8865 62.6807C27.8865 66.7312 31.2026 70.0269 35.2781 70.0269H53.6054C57.681 70.0269 60.9971 66.7312 60.9971 62.6807C60.9971 58.6051 57.681 55.3345 53.6054 55.3345Z" fill="#00A0DE"/>
<path d="M123.953 55.3345H105.626C101.55 55.3345 98.234 58.6303 98.234 62.6807C98.234 66.7312 101.55 70.0269 105.626 70.0269H123.953C128.029 70.0269 131.345 66.7312 131.345 62.6807C131.319 58.6051 128.029 55.3345 123.953 55.3345Z" fill="#00A0DE"/>
<path d="M126.747 62.7453H33.9689C25.9729 62.7453 18.8401 69.2924 16.2001 79.0966L-1.5686 144.897L-1.36553 150.588H160L159.772 144.897L144.77 80.1165C142.384 69.7859 135.073 62.7453 126.747 62.7453Z" fill="#EC3413"/>
<path d="M44.4419 159.187C63.2178 159.187 78.4386 144.06 78.4386 125.4C78.4386 106.74 63.2178 91.6125 44.4419 91.6125C25.6661 91.6125 10.4453 106.74 10.4453 125.4C10.4453 144.06 25.6661 159.187 44.4419 159.187Z" fill="#EC3413"/>
<path d="M114.764 159.187C133.54 159.187 148.761 144.06 148.761 125.4C148.761 106.74 133.54 91.6125 114.764 91.6125C95.9881 91.6125 80.7673 106.74 80.7673 125.4C80.7673 144.06 95.9881 159.187 114.764 159.187Z" fill="#EC3413"/>
<path d="M44.4419 143.136C54.2982 143.136 62.2882 135.195 62.2882 125.4C62.2882 115.604 54.2982 107.663 44.4419 107.663C34.5857 107.663 26.5956 115.604 26.5956 125.4C26.5956 135.195 34.5857 143.136 44.4419 143.136Z" fill="white"/>
<path d="M114.764 143.136C124.62 143.136 132.61 135.195 132.61 125.4C132.61 115.604 124.62 107.663 114.764 107.663C104.908 107.663 96.9177 115.604 96.9177 125.4C96.9177 135.195 104.908 143.136 114.764 143.136Z" fill="white"/>
<path d="M44.442 77.5742V93.298" stroke="black" stroke-width="8" stroke-miterlimit="10" stroke-linecap="round" stroke-linejoin="round"/>
<path d="M52.3399 85.4237H36.5187" stroke="black" stroke-width="8" stroke-miterlimit="10" stroke-linecap="round" stroke-linejoin="round"/>
<path d="M103.145 93.1723C107.451 93.1723 110.942 89.7031 110.942 85.4236C110.942 81.1441 107.451 77.6749 103.145 77.6749C98.839 77.6749 95.3483 81.1441 95.3483 85.4236C95.3483 89.7031 98.839 93.1723 103.145 93.1723Z" fill="white"/>
<path d="M126.409 93.1723C130.715 93.1723 134.205 89.7031 134.205 85.4236C134.205 81.1441 130.715 77.6749 126.409 77.6749C122.103 77.6749 118.612 81.1441 118.612 85.4236C118.612 89.7031 122.103 93.1723 126.409 93.1723Z" fill="white"/>
<path d="M70.5883 44.2991V20.0105C70.5883 17.8281 72.9815 16.5187 74.7701 17.6997L92.9085 29.844C94.5207 30.9224 94.5207 33.3615 92.9085 34.4399L74.7701 46.5842C72.9815 47.8166 70.5883 46.5072 70.5883 44.2991Z" fill="black"/>
</g>
</svg>
