<svg width="228" height="156" viewBox="0 0 228 156" fill="none" xmlns="http://www.w3.org/2000/svg">
<mask id="mask0" mask-type="alpha" maskUnits="userSpaceOnUse" x="0" y="0" width="228" height="156">
<path d="M0 114C0 51.0395 51.0395 0 114 0V0C176.96 0 228 51.0395 228 114V156H0V114Z" fill="#E63312"/>
</mask>
<g mask="url(#mask0)">
<rect width="228" height="156" fill="#FFCC00"/>
<path d="M-36.3841 11.9395L66.3594 100.652L102.641 65.8228L-26.0059 -12.968C-41.8222 -22.6819 -61.084 -25.0897 -78.8098 -19.5685C-80.927 -18.9043 -81.5082 -16.206 -79.8477 -14.753L-49.585 11.6904C-45.7659 8.61851 -40.2032 8.61851 -36.3841 11.9395Z" fill="#EC3413"/>
<path d="M211.529 221.661L132.738 93.0135L97.9089 129.295L186.621 232.039C189.942 235.858 189.901 241.421 186.829 245.24L213.272 275.503C214.725 277.163 217.423 276.582 218.088 274.465C223.609 256.739 221.201 237.477 211.529 221.661Z" fill="#EC3413"/>
<path d="M-49.5847 11.6907L59.5932 107.086L66.3597 100.611L-36.3837 11.9398C-40.2029 8.61879 -45.7656 8.61879 -49.5847 11.6907Z" fill="black"/>
<path d="M186.622 232.039L97.9093 129.295L91.4333 136.062L186.829 245.24C189.901 241.421 189.943 235.858 186.622 232.039Z" fill="black"/>
<path d="M164.412 64.6604L76.0735 152.999L44.0674 120.993L132.406 32.6543C141.248 23.8121 155.57 23.8121 164.412 32.6543C173.254 41.5379 173.254 55.8598 164.412 64.6604Z" fill="#00A0DE"/>
<path d="M151.128 77.9444L62.7896 166.283L30.7834 134.277L119.122 45.9382C127.964 37.0961 142.286 37.0961 151.128 45.9382C159.97 54.7804 159.97 69.1022 151.128 77.9444Z" fill="white"/>
<path d="M142.328 86.7452L-8.11348 237.228L-40.1196 205.222L110.363 54.7391C119.205 45.8969 133.527 45.8969 142.369 54.7391C151.17 63.5812 151.17 77.9031 142.328 86.7452Z" fill="#00A0DE"/>
</g>
</svg>
