<svg width="228" height="156" viewBox="0 0 228 156" fill="none" xmlns="http://www.w3.org/2000/svg">
<mask id="mask0" mask-type="alpha" maskUnits="userSpaceOnUse" x="0" y="0" width="228" height="156">
<path d="M0 114C0 51.0395 51.0395 0 114 0V0C176.96 0 228 51.0395 228 114V156H0V114Z" fill="#E63312"/>
</mask>
<g mask="url(#mask0)">
<rect width="228" height="156" fill="#FFCC00"/>
<path d="M73.8129 78.5045H45.5818C39.3039 78.5045 34.1958 83.6126 34.1958 89.8905C34.1958 96.1684 39.3039 101.277 45.5818 101.277H73.8129C80.0908 101.277 85.1989 96.1684 85.1989 89.8905C85.1989 83.5736 80.0908 78.5045 73.8129 78.5045Z" fill="#00A0DE"/>
<path d="M182.175 78.5045H153.944C147.666 78.5045 142.558 83.6126 142.558 89.8905C142.558 96.1684 147.666 101.277 153.944 101.277H182.175C188.453 101.277 193.561 96.1684 193.561 89.8905C193.522 83.5736 188.453 78.5045 182.175 78.5045Z" fill="#00A0DE"/>
<path d="M186.62 89.8905H44.1002C31.8174 89.8905 20.8603 97.6501 16.805 109.27L-10.4902 187.256L-10.1783 194.002H237.701L237.35 187.256L214.305 110.479C210.64 98.235 199.41 89.8905 186.62 89.8905Z" fill="#EC3413"/>
<path d="M59.6975 239.468C88.6195 239.468 112.065 216.022 112.065 187.1C112.065 158.179 88.6195 134.733 59.6975 134.733C30.7756 134.733 7.32971 158.179 7.32971 187.1C7.32971 216.022 30.7756 239.468 59.6975 239.468Z" fill="#EC3413"/>
<path d="M168.02 239.468C196.942 239.468 220.388 216.022 220.388 187.1C220.388 158.179 196.942 134.733 168.02 134.733C139.098 134.733 115.653 158.179 115.653 187.1C115.653 216.022 139.098 239.468 168.02 239.468Z" fill="#EC3413"/>
<path d="M59.6976 112.974V137.345" stroke="black" stroke-width="8" stroke-miterlimit="10" stroke-linecap="round" stroke-linejoin="round"/>
<path d="M71.8636 125.14H47.4929" stroke="black" stroke-width="8" stroke-miterlimit="10" stroke-linecap="round" stroke-linejoin="round"/>
<path d="M150.123 137.15C156.756 137.15 162.133 131.773 162.133 125.14C162.133 118.508 156.756 113.13 150.123 113.13C143.49 113.13 138.113 118.508 138.113 125.14C138.113 131.773 143.49 137.15 150.123 137.15Z" fill="white"/>
<path d="M185.958 137.15C192.591 137.15 197.968 131.773 197.968 125.14C197.968 118.508 192.591 113.13 185.958 113.13C179.325 113.13 173.948 118.508 173.948 125.14C173.948 131.773 179.325 137.15 185.958 137.15Z" fill="white"/>
<path d="M98.0273 58.0721V21.1846C98.0273 17.8702 101.732 15.8815 104.5 17.6752L132.575 36.119C135.071 37.7567 135.071 41.461 132.575 43.0988L104.5 61.5425C101.732 63.4142 98.0273 61.4255 98.0273 58.0721Z" fill="black"/>
</g>
</svg>
