<svg width="100" height="100" viewBox="0 0 100 100" fill="none" xmlns="http://www.w3.org/2000/svg">
<circle cx="50" cy="50.0002" r="50" fill="#FFCC00"/>
<mask id="mask0" mask-type="alpha" maskUnits="userSpaceOnUse" x="0" y="0" width="100" height="101">
<circle cx="50" cy="50.0002" r="50" fill="#CCCCCC"/>
</mask>
<g mask="url(#mask0)">
<path d="M110.219 35.8734V37.3413H100.937H84.6224H84.5547C84.1482 38.9169 82.6983 40.0886 80.991 40.0886L73.1995 39.3479L70.6521 39.1055L69.148 37.7049C69.026 37.5972 68.9312 37.476 68.8499 37.3413C68.606 36.9777 68.5111 36.5468 68.5518 36.1293C66.2618 36.1966 63.8498 36.3313 61.3836 36.5333C46.7086 37.7453 29.7707 41.4487 20.5836 49.4615C21.9387 50.1618 22.8736 51.5759 22.8736 53.2188V59.5483C22.8736 61.8781 20.963 63.7769 18.6188 63.7769H13.8085C13.8356 66.1471 14.0795 68.4769 14.5266 70.7393C14.9602 72.9209 16.9115 74.4831 19.1744 74.4831H25.1907C24.6487 72.6785 24.3642 70.7662 24.3642 68.7731C24.3642 57.7033 33.4158 48.7209 44.5677 48.7747C55.5028 48.8151 64.4596 57.636 64.6086 68.5038C64.6357 70.5912 64.3376 72.5977 63.7821 74.4831H73.2131H87.4138H110.233L110.219 35.8734Z" fill="#EC3413"/>
<path d="M35.7328 79.8565C31.3561 80.2874 28.4427 81.0416 28.4427 81.9035C28.4427 83.2367 35.367 84.314 43.9037 84.314C52.4404 84.314 59.3646 83.2367 59.3646 81.9035C59.3646 81.1089 56.8984 80.3952 53.0908 79.9642C50.733 81.8361 47.7384 82.9539 44.4863 82.9539C41.1665 82.9539 38.1177 81.7957 35.7328 79.8565Z" fill="black"/>
<path d="M69.2563 34.8231L73.9854 31.0254C74.1345 30.9042 74.2835 30.8099 74.4326 30.7156L93.7282 0.980652H84.4327L61.3836 36.5334C63.8498 36.3314 66.2617 36.1967 68.5517 36.1294C68.6059 35.6445 68.8363 35.1597 69.2563 34.8231Z" fill="#00A0DE"/>
<path d="M76.3025 30.2174H81.0045C83.037 30.2174 84.6901 31.8603 84.6901 33.8938V35.86V36.3987C84.6901 36.7084 84.6495 37.0182 84.5817 37.3144C84.5817 37.3279 84.5817 37.3279 84.5817 37.3414H84.6495H100.937H110.232V35.8735V0.980652H100.937H93.7282L74.4461 30.7291C75.0017 30.3924 75.6385 30.2174 76.3025 30.2174Z" fill="black"/>
<path d="M22.8736 59.5348V53.2053C22.8736 51.5758 21.9387 50.1618 20.5836 49.4481C16.383 53.1245 13.8085 57.6898 13.8085 63.319C13.8085 63.4671 13.8085 63.6153 13.8085 63.7634H18.6053C20.963 63.7634 22.8736 61.8646 22.8736 59.5348Z" fill="white"/>
<path d="M44.5678 48.7615C33.4159 48.7211 24.3643 57.6901 24.3643 68.7599C24.3643 70.7395 24.6624 72.6518 25.1908 74.4699C25.1908 74.4833 25.2044 74.5103 25.2044 74.5237H31.7221C31.7085 74.5103 31.7085 74.4833 31.695 74.4699C31.0175 72.8538 30.6381 71.0627 30.6381 69.2043C30.6381 61.6089 36.8306 55.4546 44.4729 55.4546C52.1153 55.4546 58.3078 61.6089 58.3078 69.2043C58.3078 71.0762 57.9284 72.8538 57.2509 74.4699C57.2373 74.4833 57.2373 74.5103 57.2238 74.5237H63.7415C63.7415 74.5103 63.755 74.4833 63.755 74.4699C64.3242 72.5845 64.6087 70.5645 64.5816 68.4905C64.4597 57.6227 55.4893 48.8154 44.5678 48.7615Z" fill="black"/>
<path d="M58.3079 69.2041C58.3079 61.6088 52.1154 55.4544 44.473 55.4544C36.8306 55.4544 30.6381 61.6088 30.6381 69.2041C30.6381 71.076 31.0175 72.8537 31.695 74.4697C31.7086 74.4832 31.7086 74.5101 31.7221 74.5236C32.6029 76.611 33.9986 78.4425 35.7466 79.8565C38.1315 81.7957 41.1667 82.9539 44.4866 82.9539C47.7386 82.9539 50.7333 81.8361 53.091 79.9642C54.8932 78.5367 56.3431 76.6648 57.251 74.5236C57.2645 74.5101 57.2645 74.4832 57.2781 74.4697C57.942 72.8537 58.3079 71.076 58.3079 69.2041ZM51.5056 74.5236C49.8931 76.6244 47.3457 77.9846 44.473 77.9846C41.6003 77.9846 39.0529 76.6244 37.4404 74.5236C37.4268 74.5101 37.4133 74.4832 37.3997 74.4697C36.2886 73.0018 35.6382 71.1838 35.6382 69.2041C35.6382 64.356 39.5949 60.4237 44.473 60.4237C49.3511 60.4237 53.3078 64.356 53.3078 69.2041C53.3078 71.1838 52.6574 73.0018 51.5463 74.4697C51.5327 74.4832 51.5192 74.5101 51.5056 74.5236Z" fill="white"/>
<path d="M44.4729 60.4239C39.5948 60.4239 35.6381 64.3562 35.6381 69.2043C35.6381 71.184 36.2885 73.002 37.3996 74.4699C37.4132 74.4834 37.4267 74.5103 37.4403 74.5238C39.0527 76.6246 41.6002 77.9848 44.4729 77.9848C47.3455 77.9848 49.893 76.6246 51.5055 74.5238C51.519 74.5103 51.5326 74.4834 51.5461 74.4699C52.6573 73.002 53.3077 71.184 53.3077 69.2043C53.3212 64.3562 49.3645 60.4239 44.4729 60.4239Z" fill="#00A0DE"/>
<path d="M84.6768 36.4122V35.8735V33.9073C84.6768 31.8738 83.0236 30.2308 80.9911 30.2308H76.2891C75.6387 30.2308 75.0018 30.4059 74.4463 30.7291C74.2837 30.8234 74.1346 30.9176 73.9991 31.0389L69.2701 34.8365C68.85 35.1732 68.6061 35.658 68.5654 36.1428C68.5248 36.5603 68.6196 36.9912 68.8635 37.3548C68.9448 37.476 69.0397 37.5972 69.1616 37.7184L70.6657 39.119L73.2132 39.3614L81.0046 40.1021C82.712 40.1021 84.1483 38.9305 84.5684 37.3548C84.5684 37.3414 84.5684 37.3414 84.5684 37.3279C84.6361 37.0316 84.6768 36.7219 84.6768 36.4122Z" fill="white"/>
</g>
</svg>
