<svg width="160" height="160" viewBox="0 0 160 160" fill="none" xmlns="http://www.w3.org/2000/svg">
<circle cx="80" cy="80.0002" r="80" fill="#FFCC00"/>
<mask id="mask0" mask-type="alpha" maskUnits="userSpaceOnUse" x="0" y="0" width="160" height="161">
<circle cx="80" cy="80.0002" r="80" fill="#CCCCCC"/>
</mask>
<g mask="url(#mask0)">
<path d="M118.528 77.7561C117.69 77.7561 116.877 77.2259 116.597 76.3674L110.703 58.8948C107.985 50.8402 101.023 47.9618 95.4087 47.9618C89.7941 47.9618 82.8329 50.8402 80.1145 58.8948L74.2203 76.3674C73.8646 77.4279 72.7214 77.9834 71.6543 77.6299C70.5873 77.2764 70.0284 76.1402 70.384 75.0797L76.2782 57.6071C79.0728 49.2748 86.5929 43.9219 95.4341 43.9219C104.275 43.9219 111.77 49.3 114.59 57.6071L120.484 75.0797C120.84 76.1402 120.256 77.2764 119.214 77.6299C118.96 77.7309 118.757 77.7561 118.528 77.7561Z" fill="white"/>
<path d="M138.04 67.1259H28.2358V166.912H138.04V67.1259Z" fill="#EC3413"/>
<path d="M138.04 67.1259H95.3328V166.912H138.04V67.1259Z" fill="#FFCC00"/>
<path d="M116.724 156.155L95.4088 166.912V67.1259L116.724 77.8821V156.155Z" fill="#00A0DE"/>
<path d="M138.04 166.912L116.724 156.155V77.8821L138.04 67.1259V166.912Z" fill="black"/>
<path d="M84.9416 77.7561C84.1032 77.7561 83.2902 77.2259 83.0107 76.3674L77.1166 58.8948C74.3982 50.8402 67.437 47.9618 61.8223 47.9618C56.2076 47.9618 49.2464 50.8402 46.528 58.8948L40.6339 76.3674C40.2782 77.4279 39.1349 77.9834 38.0679 77.6299C37.0009 77.2764 36.4419 76.1402 36.7976 75.0797L42.6918 57.6071C45.4864 49.3 53.0065 43.9219 61.8223 43.9219C70.6635 43.9219 78.1582 49.3 80.9783 57.6071L86.8724 75.0797C87.2281 76.1402 86.6438 77.2764 85.6021 77.6299C85.3735 77.7309 85.1702 77.7561 84.9416 77.7561Z" fill="black"/>
</g>
</svg>
