<svg width="228" height="156" viewBox="0 0 228 156" fill="none" xmlns="http://www.w3.org/2000/svg">
<mask id="mask0" mask-type="alpha" maskUnits="userSpaceOnUse" x="0" y="0" width="228" height="156">
<path d="M0 114C0 51.0395 51.0395 0 114 0V0C176.96 0 228 51.0395 228 114V156H0V114Z" fill="#E63312"/>
</mask>
<g mask="url(#mask0)">
<rect width="228" height="156" fill="#FFCC00"/>
<path d="M107.311 176.174H109.917V80.7683C109.917 74.4079 104.859 69.2353 98.4988 69.0438C98.3838 69.0438 98.2689 69.0438 98.1539 69.0438H28.4196C24.703 69.0438 21.7144 72.0324 21.7144 75.749V165.139C21.7144 168.856 24.703 171.844 28.4196 171.844H98.1539C98.2689 171.844 98.3838 171.844 98.4988 171.844C102.062 171.921 105.204 173.607 107.311 176.174Z" fill="white"/>
<path d="M199.076 69.1973H129.342C129.227 69.1973 129.112 69.1973 128.997 69.1973C122.675 69.3888 117.579 74.5614 117.579 80.9218V176.136H120.376C122.445 173.684 125.549 172.075 128.997 171.998C129.112 171.998 129.227 171.998 129.342 171.998H199.076C202.793 171.998 205.781 169.009 205.781 165.293V75.9025C205.781 72.1859 202.793 69.1973 199.076 69.1973Z" fill="white"/>
<path d="M113.672 172.496H113.748V72.7603C113.748 66.5149 108.767 61.4189 102.56 61.2274C102.445 61.2274 102.33 61.2274 102.215 61.2274H39.7226C36.0826 61.2274 33.1323 64.1777 33.1323 67.8176V155.599C33.1323 159.239 36.0826 162.189 39.7226 162.189H102.215C102.33 162.189 102.445 162.189 102.56 162.189C108.384 162.342 113.097 166.825 113.672 172.496Z" fill="#00A0DE"/>
<path d="M187.774 61.419H125.281C125.166 61.419 125.051 61.419 124.936 61.419C118.729 61.6106 113.748 66.6682 113.748 72.952V172.496H113.825C114.514 166.902 119.189 162.534 124.936 162.342C125.051 162.342 125.166 162.342 125.281 162.342H187.774C191.414 162.342 194.364 159.392 194.364 155.752V68.0093C194.364 64.3693 191.414 61.419 187.774 61.419Z" fill="#EC3413"/>
<path d="M139.842 61.4189L72.751 136.403V140.579H81.0655L151.873 61.4189H139.842Z" fill="black"/>
<path d="M83.939 46.4377H71.678V138.778C71.678 142.15 74.4367 144.909 77.8085 144.909C81.1802 144.909 83.939 142.15 83.939 138.778V46.4377Z" fill="#EC3413"/>
<path d="M84.322 57.0895V26.0155C84.322 22.6821 81.6399 20 78.3064 20H77.2719C73.9384 20 71.2563 22.6821 71.2563 26.0155V57.0895H84.322Z" fill="#00A0DE"/>
</g>
</svg>
