<svg width="160" height="160" viewBox="0 0 160 160" fill="none" xmlns="http://www.w3.org/2000/svg">
<circle cx="80" cy="80" r="80" fill="#00A0DE"/>
<mask id="mask0" mask-type="alpha" maskUnits="userSpaceOnUse" x="0" y="0" width="160" height="160">
<circle cx="80" cy="80" r="80" fill="#00A0DE"/>
</mask>
<g mask="url(#mask0)">
<path d="M73.7262 0H-6.2738V160H73.7262V0Z" fill="#FFCC00"/>
<path d="M73.7262 160H87.8439L87.8439 0H73.7262L73.7262 160Z" fill="white"/>
<path d="M81.2006 110.169H80.4688C79.0271 110.169 77.8517 109.001 77.8517 107.568V83.8072C77.8517 82.3745 79.0271 81.2063 80.4688 81.2063H81.2006C82.6422 81.2063 83.8177 82.3745 83.8177 83.8072V107.568C83.8177 109.001 82.6422 110.169 81.2006 110.169Z" fill="black"/>
<path d="M48.1227 77.3929C44.796 77.3929 41.6688 76.5773 38.8965 75.1226V108.715C38.8965 111.161 40.8925 113.167 43.3765 113.167H52.6915C55.1533 113.167 57.1715 111.183 57.1715 108.715V75.2107C54.4436 76.5994 51.383 77.3929 48.1227 77.3929Z" fill="#EC3413"/>
<path d="M57.1493 75.211V48.3419C57.1493 45.8952 55.1532 43.8894 52.6693 43.8894H43.3543C40.8925 43.8894 38.8743 45.8732 38.8743 48.3419V75.1229C41.6244 76.5777 44.7516 77.3932 48.1005 77.3932C51.3829 77.3932 54.4435 76.5997 57.1493 75.211Z" fill="black"/>
<path d="M47.9453 73.7342C57.0094 73.7342 64.3573 66.4315 64.3573 57.4231C64.3573 48.4148 57.0094 41.1121 47.9453 41.1121C38.8811 41.1121 31.5332 48.4148 31.5332 57.4231C31.5332 66.4315 38.8811 73.7342 47.9453 73.7342Z" fill="#EC3413"/>
<path d="M48.2333 107.04H47.5457C46.2816 107.04 45.2614 106.026 45.2614 104.769V89.6045C45.2614 88.3482 46.2816 87.3342 47.5457 87.3342H48.2333C49.4974 87.3342 50.5177 88.3482 50.5177 89.6045V104.769C50.5398 106.026 49.4974 107.04 48.2333 107.04Z" fill="white"/>
<path d="M47.9007 91.8529C50.7547 91.8529 53.0683 89.5535 53.0683 86.7171C53.0683 83.8807 50.7547 81.5813 47.9007 81.5813C45.0468 81.5813 42.7332 83.8807 42.7332 86.7171C42.7332 89.5535 45.0468 91.8529 47.9007 91.8529Z" fill="white"/>
</g>
</svg>
