<svg width="100" height="100" viewBox="0 0 100 100" fill="none" xmlns="http://www.w3.org/2000/svg">
<circle cx="50" cy="50.0002" r="50" fill="#FFCC00"/>
<mask id="mask0" mask-type="alpha" maskUnits="userSpaceOnUse" x="0" y="0" width="100" height="101">
<circle cx="50" cy="50.0002" r="50" fill="#CCCCCC"/>
</mask>
<g mask="url(#mask0)">
<path d="M64.928 87.3667H66.2464V39.3852C66.2464 36.1865 63.6871 33.5851 60.4685 33.4887C60.4104 33.4887 60.3522 33.4887 60.294 33.4887H25.0061C23.1254 33.4887 21.613 34.9917 21.613 36.8609V81.817C21.613 83.6862 23.1254 85.1892 25.0061 85.1892H60.294C60.3522 85.1892 60.4104 85.1892 60.4685 85.1892C62.2717 85.2277 63.8616 86.0756 64.928 87.3667Z" fill="white"/>
<path d="M111.364 33.5659H76.0761C76.0179 33.5659 75.9597 33.5659 75.9016 33.5659C72.7024 33.6623 70.1237 36.2637 70.1237 39.4624V87.3475H71.5391C72.5861 86.1142 74.1566 85.3049 75.9016 85.2664C75.9597 85.2664 76.0179 85.2664 76.0761 85.2664H111.364C113.245 85.2664 114.757 83.7634 114.757 81.8942V36.9381C114.757 35.069 113.245 33.5659 111.364 33.5659Z" fill="white"/>
<path d="M68.1464 85.5169H68.1852V35.358C68.1852 32.217 65.6646 29.6541 62.5236 29.5578C62.4655 29.5578 62.4073 29.5578 62.3491 29.5578H30.7257C28.8838 29.5578 27.3908 31.0416 27.3908 32.8722V77.019C27.3908 78.8496 28.8838 80.3333 30.7257 80.3333H62.3491C62.4073 80.3333 62.4655 80.3333 62.5236 80.3333C65.4707 80.4104 67.8556 82.665 68.1464 85.5169Z" fill="#00A0DE"/>
<path d="M105.645 29.6541H74.0211C73.963 29.6541 73.9048 29.6541 73.8466 29.6541C70.7056 29.7505 68.1851 32.2941 68.1851 35.4543V85.5168H68.2238C68.5728 82.7035 70.9383 80.5067 73.8466 80.4104C73.9048 80.4104 73.963 80.4104 74.0211 80.4104H105.645C107.486 80.4104 108.979 78.9266 108.979 77.096V32.9685C108.979 31.1379 107.486 29.6541 105.645 29.6541Z" fill="#EC3413"/>
<path d="M81.3894 29.6542L47.4393 67.3649V69.4653H51.6467L87.4776 29.6542H81.3894Z" fill="black"/>
<path d="M53.1008 22.1198H46.8963V68.5597C46.8963 70.2554 48.2923 71.6428 49.9985 71.6428C51.7048 71.6428 53.1008 70.2554 53.1008 68.5597V22.1198Z" fill="#EC3413"/>
<path d="M53.2946 27.4768V11.8491C53.2946 10.1727 51.9374 8.82379 50.2506 8.82379H49.7271C48.0402 8.82379 46.683 10.1727 46.683 11.8491V27.4768H53.2946Z" fill="#00A0DE"/>
</g>
</svg>
