<svg width="100" height="100" viewBox="0 0 100 100" fill="none" xmlns="http://www.w3.org/2000/svg">
<circle cx="50" cy="50.0002" r="50" fill="#FFCC00"/>
<mask id="mask0" mask-type="alpha" maskUnits="userSpaceOnUse" x="0" y="0" width="100" height="101">
<circle cx="50" cy="50.0002" r="50" fill="#CCCCCC"/>
</mask>
<g mask="url(#mask0)">
<path d="M74.08 48.5977C73.556 48.5977 73.0479 48.2663 72.8733 47.7297L69.1894 36.8094C67.4904 31.7753 63.1397 29.9762 59.6305 29.9762C56.1213 29.9762 51.7706 31.7753 50.0716 36.8094L46.3877 47.7297C46.1654 48.3925 45.4509 48.7397 44.784 48.5188C44.1171 48.2979 43.7678 47.5877 43.9901 46.9249L47.6739 36.0045C49.4205 30.7968 54.1206 27.4513 59.6464 27.4513C65.1721 27.4513 69.8563 30.8126 71.6188 36.0045L75.3027 46.9249C75.525 47.5877 75.1598 48.2979 74.5088 48.5188C74.35 48.5819 74.2229 48.5977 74.08 48.5977Z" fill="white"/>
<path d="M86.2748 41.9537H17.6474V104.32H86.2748V41.9537Z" fill="#EC3413"/>
<path d="M86.2749 41.9537H59.5829V104.32H86.2749V41.9537Z" fill="#FFCC00"/>
<path d="M72.9526 97.5972L59.6305 104.32V41.9537L72.9526 48.6764V97.5972Z" fill="#00A0DE"/>
<path d="M86.2747 104.32L72.9526 97.5972V48.6764L86.2747 41.9537V104.32Z" fill="black"/>
<path d="M53.0884 48.5977C52.5645 48.5977 52.0563 48.2663 51.8817 47.7297L48.1978 36.8094C46.4988 31.7753 42.1481 29.9762 38.6389 29.9762C35.1297 29.9762 30.779 31.7753 29.08 36.8094L25.3961 47.7297C25.1738 48.3925 24.4593 48.7397 23.7924 48.5188C23.1255 48.2979 22.7762 47.5877 22.9985 46.9249L26.6823 36.0045C28.429 30.8126 33.129 27.4513 38.6389 27.4513C44.1647 27.4513 48.8489 30.8126 50.6114 36.0045L54.2952 46.9249C54.5175 47.5877 54.1523 48.2979 53.5013 48.5188C53.3584 48.5819 53.2314 48.5977 53.0884 48.5977Z" fill="black"/>
</g>
</svg>
