<svg width="160" height="160" viewBox="0 0 160 160" fill="none" xmlns="http://www.w3.org/2000/svg">
<circle cx="80" cy="80.0002" r="80" fill="#FFCC00"/>
<mask id="mask0" mask-type="alpha" maskUnits="userSpaceOnUse" x="0" y="0" width="160" height="161">
<circle cx="80" cy="80.0002" r="80" fill="#CCCCCC"/>
</mask>
<g mask="url(#mask0)">
<path d="M176.35 57.3972V59.7458H161.499H135.396H135.288C134.637 62.2669 132.317 64.1415 129.586 64.1415L117.119 62.9564L113.043 62.5685L110.637 60.3276C110.442 60.1552 110.29 59.9613 110.16 59.7458C109.77 59.1641 109.618 58.4746 109.683 57.8066C106.019 57.9143 102.16 58.1298 98.2138 58.453C74.7338 60.3923 47.6332 66.3177 32.9338 79.1382C35.1019 80.2587 36.5978 82.5211 36.5978 85.1499V95.277C36.5978 99.0047 33.5409 102.043 29.7901 102.043H22.0936C22.1369 105.835 22.5272 109.563 23.2426 113.183C23.9364 116.673 27.0584 119.173 30.679 119.173H40.3052C39.438 116.285 38.9827 113.226 38.9827 110.037C38.9827 92.3251 53.4653 77.9531 71.3083 78.0393C88.8045 78.104 103.135 92.2173 103.374 109.606C103.417 112.946 102.94 116.156 102.051 119.173H117.141H139.862H176.372L176.35 57.3972Z" fill="#EC3413"/>
<path d="M57.1725 127.77C50.1697 128.46 45.5084 129.666 45.5084 131.045C45.5084 133.179 56.5872 134.902 70.2459 134.902C83.9046 134.902 94.9834 133.179 94.9834 131.045C94.9834 129.774 91.0375 128.632 84.9453 127.943C81.1729 130.938 76.3815 132.726 71.1781 132.726C65.8664 132.726 60.9883 130.873 57.1725 127.77Z" fill="black"/>
<path d="M110.81 55.7167L118.377 49.6404C118.615 49.4465 118.854 49.2957 119.092 49.1448L149.965 1.56885H135.092L98.2138 58.4532C102.16 58.13 106.019 57.9145 109.683 57.8068C109.77 57.0311 110.138 56.2554 110.81 55.7167Z" fill="#00A0DE"/>
<path d="M122.084 48.3476H129.607C132.859 48.3476 135.504 50.9763 135.504 54.2299V57.3758V58.2377C135.504 58.7333 135.439 59.2289 135.331 59.7029C135.331 59.7245 135.331 59.7245 135.331 59.746H135.439H161.499H176.372V57.3974V1.56885H161.499H149.965L119.114 49.1664C120.003 48.6277 121.022 48.3476 122.084 48.3476Z" fill="black"/>
<path d="M36.5978 95.2555V85.1284C36.5978 82.5212 35.1019 80.2588 32.9338 79.1168C26.2129 84.9991 22.0936 92.3036 22.0936 101.31C22.0936 101.547 22.0936 101.784 22.0936 102.021H29.7685C33.5409 102.021 36.5978 98.9832 36.5978 95.2555Z" fill="white"/>
<path d="M71.3085 78.0182C53.4654 77.9536 38.9828 92.3039 38.9828 110.016C38.9828 113.183 39.4598 116.243 40.3053 119.152C40.3053 119.173 40.327 119.216 40.327 119.238H50.7553C50.7337 119.216 50.7337 119.173 50.712 119.152C49.628 116.566 49.0209 113.7 49.0209 110.727C49.0209 98.5742 58.9289 88.7271 71.1567 88.7271C83.3845 88.7271 93.2925 98.5742 93.2925 110.727C93.2925 113.722 92.6855 116.566 91.6014 119.152C91.5798 119.173 91.5798 119.216 91.5581 119.238H101.986C101.986 119.216 102.008 119.173 102.008 119.152C102.919 116.135 103.374 112.903 103.331 109.585C103.135 92.1962 88.783 78.1044 71.3085 78.0182Z" fill="black"/>
<path d="M93.2926 110.726C93.2926 98.5739 83.3847 88.7269 71.1568 88.7269C58.929 88.7269 49.021 98.5739 49.021 110.726C49.021 113.721 49.6281 116.566 50.7121 119.151C50.7338 119.173 50.7338 119.216 50.7555 119.238C52.1647 122.577 54.3978 125.508 57.1946 127.77C61.0104 130.873 65.8668 132.726 71.1785 132.726C76.3818 132.726 81.1732 130.938 84.9456 127.943C87.8292 125.659 90.149 122.664 91.6016 119.238C91.6232 119.216 91.6232 119.173 91.6449 119.151C92.7073 116.566 93.2926 113.721 93.2926 110.726ZM82.409 119.238C79.829 122.599 75.7531 124.775 71.1568 124.775C66.5606 124.775 62.4846 122.599 59.9046 119.238C59.883 119.216 59.8613 119.173 59.8396 119.151C58.0618 116.803 57.0211 113.894 57.0211 110.726C57.0211 102.969 63.3519 96.6777 71.1568 96.6777C78.9618 96.6777 85.2925 102.969 85.2925 110.726C85.2925 113.894 84.2519 116.803 82.4741 119.151C82.4524 119.173 82.4307 119.216 82.409 119.238Z" fill="white"/>
<path d="M71.1566 96.678C63.3516 96.678 57.0209 102.97 57.0209 110.727C57.0209 113.894 58.0615 116.803 59.8393 119.152C59.861 119.173 59.8827 119.216 59.9044 119.238C62.4844 122.599 66.5603 124.775 71.1566 124.775C75.7528 124.775 79.8288 122.599 82.4088 119.238C82.4304 119.216 82.4521 119.173 82.4738 119.152C84.2516 116.803 85.2923 113.894 85.2923 110.727C85.3139 102.97 78.9832 96.678 71.1566 96.678Z" fill="#00A0DE"/>
<path d="M135.483 58.2593V57.3974V54.2516C135.483 50.9979 132.838 48.3692 129.586 48.3692H122.063C121.022 48.3692 120.003 48.6493 119.114 49.1664C118.854 49.3173 118.615 49.4681 118.399 49.662L110.832 55.7383C110.16 56.277 109.77 57.0527 109.705 57.8284C109.64 58.4963 109.791 59.1858 110.182 59.7676C110.312 59.9615 110.464 60.1555 110.659 60.3494L113.065 62.5903L117.141 62.9781L129.607 64.1632C132.339 64.1632 134.637 62.2886 135.309 59.7676C135.309 59.7461 135.309 59.7461 135.309 59.7245C135.418 59.2505 135.483 58.7549 135.483 58.2593Z" fill="white"/>
</g>
</svg>
