<svg width="160" height="160" viewBox="0 0 160 160" fill="none" xmlns="http://www.w3.org/2000/svg">
<circle cx="80" cy="80.0002" r="80" fill="#FFCC00"/>
<mask id="mask0" mask-type="alpha" maskUnits="userSpaceOnUse" x="0" y="0" width="160" height="161">
<circle cx="80" cy="80.0002" r="80" fill="#CCCCCC"/>
</mask>
<g mask="url(#mask0)">
<path d="M-28.3388 22.1471L47.6053 87.3164L74.4236 61.7305L-20.6677 3.84971C-32.3585 -3.28627 -46.5961 -5.05502 -59.6984 -0.999099C-61.2633 -0.511168 -61.6929 1.47105 -60.4655 2.5384L-38.0965 21.9641C-35.2735 19.7075 -31.1618 19.7075 -28.3388 22.1471Z" fill="#EC3413"/>
<path d="M154.909 176.211L96.6698 81.705L70.9255 108.358L136.498 183.835C138.953 186.641 138.922 190.727 136.652 193.533L156.198 215.764C157.272 216.984 159.266 216.557 159.757 215.002C163.838 201.98 162.059 187.83 154.909 176.211Z" fill="#EC3413"/>
<path d="M-38.0963 21.9644L42.6039 92.0435L47.6055 87.2862L-28.3386 22.1474C-31.1616 19.7078 -35.2733 19.7078 -38.0963 21.9644Z" fill="black"/>
<path d="M136.499 183.835L70.9258 108.358L66.139 113.329L136.652 193.533C138.923 190.727 138.953 186.641 136.499 183.835Z" fill="black"/>
<path d="M120.082 60.8763L54.7856 125.771L31.1278 102.259L96.4244 37.3642C102.96 30.8686 113.546 30.8686 120.082 37.3642C126.618 43.8903 126.618 54.4113 120.082 60.8763Z" fill="#00A0DE"/>
<path d="M110.263 70.6352L44.9666 135.53L21.3088 112.018L86.6055 47.123C93.1413 40.6274 103.727 40.6274 110.263 47.123C116.799 53.6186 116.799 64.1396 110.263 70.6352Z" fill="white"/>
<path d="M103.758 77.1003L-7.44246 187.647L-31.1002 164.135L80.1311 53.5882C86.6669 47.0926 97.2531 47.0926 103.789 53.5882C110.294 60.0838 110.294 70.6048 103.758 77.1003Z" fill="#00A0DE"/>
</g>
</svg>
