<svg width="100" height="100" viewBox="0 0 100 100" fill="none" xmlns="http://www.w3.org/2000/svg">
<circle cx="50" cy="50.0002" r="50" fill="#FFCC00"/>
<mask id="mask0" mask-type="alpha" maskUnits="userSpaceOnUse" x="0" y="0" width="100" height="101">
<circle cx="50" cy="50.0002" r="50" fill="#CCCCCC"/>
</mask>
<g mask="url(#mask0)">
<path d="M-17.7117 13.8421L29.7534 54.5729L46.5148 38.5817L-12.9172 2.4062C-20.224 -2.05379 -29.1225 -3.15926 -37.3114 -0.624307C-38.2895 -0.31935 -38.558 0.919537 -37.7908 1.58663L-23.8102 13.7277C-22.0459 12.3173 -19.476 12.3173 -17.7117 13.8421Z" fill="#EC3413"/>
<path d="M96.8182 110.132L60.4187 51.0657L44.3285 67.724L85.3115 114.897C86.8457 116.65 86.8265 119.205 85.4074 120.958L97.6236 134.853C98.2949 135.615 99.5414 135.348 99.8483 134.376C102.399 126.238 101.287 117.394 96.8182 110.132Z" fill="#EC3413"/>
<path d="M-23.8101 13.7279L26.6276 57.5273L29.7536 54.554L-17.7115 13.8423C-19.4759 12.3175 -22.0457 12.3175 -23.8101 13.7279Z" fill="black"/>
<path d="M85.3118 114.897L44.3288 67.7242L41.337 70.8309L85.4077 120.958C86.8268 119.205 86.846 116.651 85.3118 114.897Z" fill="black"/>
<path d="M75.0515 38.0478L34.2411 78.6071L19.455 63.912L60.2654 23.3527C64.3502 19.293 70.9666 19.293 75.0515 23.3527C79.1363 27.4315 79.1363 34.0072 75.0515 38.0478Z" fill="#00A0DE"/>
<path d="M68.9146 44.1471L28.1042 84.7064L13.3181 70.0113L54.1285 29.452C58.2134 25.3923 64.8297 25.3923 68.9146 29.452C72.9995 33.5118 72.9995 40.0874 68.9146 44.1471Z" fill="white"/>
<path d="M64.8489 48.1878L-4.65152 117.28L-19.4376 102.585L50.082 33.4927C54.1668 29.433 60.7832 29.433 64.8681 33.4927C68.9338 37.5525 68.9338 44.1281 64.8489 48.1878Z" fill="#00A0DE"/>
</g>
</svg>
