<svg width="100" height="100" viewBox="0 0 100 100" fill="none" xmlns="http://www.w3.org/2000/svg">
<circle cx="50" cy="50.0002" r="50" fill="#FFCC00"/>
<mask id="mask0" mask-type="alpha" maskUnits="userSpaceOnUse" x="0" y="0" width="100" height="101">
<circle cx="50" cy="50.0002" r="50" fill="#CCCCCC"/>
</mask>
<g mask="url(#mask0)">
<path d="M50.8402 89.1432C65.2625 89.1432 76.954 87.3091 76.954 85.0465C76.954 82.7839 65.2625 80.9498 50.8402 80.9498C36.4179 80.9498 24.7263 82.7839 24.7263 85.0465C24.7263 87.3091 36.4179 89.1432 50.8402 89.1432Z" fill="black"/>
<path d="M115.839 -15.953L115.427 25.4035L57.7978 82.8036L21.4535 27.2344L64.6409 -15.953H115.839Z" fill="#00A0DE"/>
<path d="M64.4351 20.9636C58.7134 20.9636 53.5638 23.3896 49.9477 27.2803C49.5586 26.8684 49.1467 26.4564 48.7347 26.0902C52.2593 29.6606 54.4564 34.5812 54.4564 40.0054C54.4564 50.602 44.0887 62.7091 34.7509 74.0152C36.7878 76.487 38.8018 78.9359 40.6557 81.3161C45.3703 87.3811 54.5022 87.3811 59.2169 81.3161C69.3557 68.2477 84.1864 53.4171 84.1864 40.7378C84.2093 29.8208 75.3521 20.9636 64.4351 20.9636Z" fill="#EC3413"/>
<path d="M48.7348 26.0906C45.2332 22.9093 40.5642 20.9868 35.4605 20.9868C24.5435 20.9639 15.6863 29.8211 15.6863 40.7381C15.6863 51.1058 25.5963 62.8926 34.751 73.9927C44.0888 62.6866 54.4565 50.5795 54.4565 39.9829C54.4565 34.5587 52.2594 29.6609 48.7348 26.0906Z" fill="white"/>
</g>
</svg>
