<svg width="228" height="156" viewBox="0 0 228 156" fill="none" xmlns="http://www.w3.org/2000/svg">
<mask id="mask0" mask-type="alpha" maskUnits="userSpaceOnUse" x="0" y="0" width="228" height="156">
<path d="M0 114C0 51.0395 51.0395 0 114 0V0C176.96 0 228 51.0395 228 114V156H0V114Z" fill="#E63312"/>
</mask>
<g mask="url(#mask0)">
<rect width="228" height="156" fill="#FFCC00"/>
<path d="M109.427 145.654C134.218 145.654 154.315 142.501 154.315 138.611C154.315 134.722 134.218 131.569 109.427 131.569C84.6361 131.569 64.5391 134.722 64.5391 138.611C64.5391 142.501 84.6361 145.654 109.427 145.654Z" fill="black"/>
<path d="M221.156 -35L220.447 36.0891L121.387 134.756L58.9136 39.2363L133.15 -35H221.156Z" fill="#00A0DE"/>
<path d="M132.796 28.4569C122.961 28.4569 114.109 32.627 107.893 39.315C107.224 38.6069 106.516 37.8987 105.808 37.2693C111.867 43.4065 115.643 51.8648 115.643 61.1886C115.643 79.4034 97.8219 100.215 81.7708 119.649C85.2721 123.898 88.7341 128.108 91.9207 132.199C100.025 142.624 115.722 142.624 123.826 132.199C141.254 109.735 166.747 84.2424 166.747 62.4475C166.786 43.6818 151.562 28.4569 132.796 28.4569Z" fill="#EC3413"/>
<path d="M105.808 37.2694C99.7891 31.8011 91.7636 28.4964 82.9906 28.4964C64.2249 28.4571 49 43.682 49 62.4476C49 80.2691 66.0346 100.53 81.771 119.61C97.8221 100.176 115.644 79.3642 115.644 61.1494C115.644 51.8256 111.867 43.4066 105.808 37.2694Z" fill="white"/>
</g>
</svg>
