<svg width="24" height="24" viewBox="0 0 24 24" fill="none" xmlns="http://www.w3.org/2000/svg">
<path fill-rule="evenodd" clip-rule="evenodd" d="M10.25 16C10.25 15.0335 11.0335 14.25 12 14.25C12.9665 14.25 13.75 15.0335 13.75 16C13.75 16.9665 12.9665 17.75 12 17.75C11.0335 17.75 10.25 16.9665 10.25 16ZM12 15.75C11.8619 15.75 11.75 15.8619 11.75 16C11.75 16.1381 11.8619 16.25 12 16.25C12.1381 16.25 12.25 16.1381 12.25 16C12.25 15.8619 12.1381 15.75 12 15.75Z" fill="black"/>
<path fill-rule="evenodd" clip-rule="evenodd" d="M7.25 10.25V7C7.25 5.74022 7.75044 4.53204 8.64124 3.64124C9.53204 2.75044 10.7402 2.25 12 2.25C13.2598 2.25 14.468 2.75044 15.3588 3.64124C16.2496 4.53204 16.75 5.74022 16.75 7V10.25H17C18.5188 10.25 19.75 11.4812 19.75 13V19C19.75 20.5188 18.5188 21.75 17 21.75H7C5.48122 21.75 4.25 20.5188 4.25 19V13C4.25 11.4812 5.48122 10.25 7 10.25H7.25ZM9.7019 4.7019C10.3114 4.09241 11.138 3.75 12 3.75C12.862 3.75 13.6886 4.09241 14.2981 4.7019C14.9076 5.3114 15.25 6.13805 15.25 7V10.25H8.75V7C8.75 6.13805 9.09241 5.3114 9.7019 4.7019ZM7 11.75C6.30964 11.75 5.75 12.3096 5.75 13V19C5.75 19.6904 6.30964 20.25 7 20.25H17C17.6904 20.25 18.25 19.6904 18.25 19V13C18.25 12.3096 17.6904 11.75 17 11.75H7Z" fill="black"/>
</svg>
