<svg width="24" height="24" viewBox="0 0 24 24" fill="none" xmlns="http://www.w3.org/2000/svg">
<path fill-rule="evenodd" clip-rule="evenodd" d="M10.25 16C10.25 15.0335 11.0335 14.25 12 14.25C12.9665 14.25 13.75 15.0335 13.75 16C13.75 16.9665 12.9665 17.75 12 17.75C11.0335 17.75 10.25 16.9665 10.25 16ZM12 15.75C11.8619 15.75 11.75 15.8619 11.75 16C11.75 16.1381 11.8619 16.25 12 16.25C12.1381 16.25 12.25 16.1381 12.25 16C12.25 15.8619 12.1381 15.75 12 15.75Z" fill="black"/>
<path fill-rule="evenodd" clip-rule="evenodd" d="M9.7019 3.7019C10.3114 3.09241 11.138 2.75 12 2.75C12.862 2.75 13.6886 3.09241 14.2981 3.7019C14.9076 4.3114 15.25 5.13805 15.25 6V6.75H16.75V6C16.75 4.74022 16.2496 3.53204 15.3588 2.64124C14.468 1.75045 13.2598 1.25 12 1.25C10.7402 1.25 9.53204 1.75045 8.64124 2.64124C7.75044 3.53204 7.25 4.74022 7.25 6V10.25H7C5.48122 10.25 4.25 11.4812 4.25 13V19C4.25 20.5188 5.48122 21.75 7 21.75H17C18.5188 21.75 19.75 20.5188 19.75 19V13C19.75 11.4812 18.5188 10.25 17 10.25H8.75V6C8.75 5.13805 9.09241 4.3114 9.7019 3.7019ZM7 11.75C6.30964 11.75 5.75 12.3096 5.75 13V19C5.75 19.6904 6.30964 20.25 7 20.25H17C17.6904 20.25 18.25 19.6904 18.25 19V13C18.25 12.3096 17.6904 11.75 17 11.75H7Z" fill="black"/>
</svg>
