<svg width="24" height="24" viewBox="0 0 24 24" fill="none" xmlns="http://www.w3.org/2000/svg">
<path fill-rule="evenodd" clip-rule="evenodd" d="M12 7.25002C9.92893 7.25002 8.25 8.92895 8.25 11C8.25 13.0711 9.92893 14.75 12 14.75C14.0711 14.75 15.75 13.0711 15.75 11C15.75 8.92895 14.0711 7.25002 12 7.25002ZM9.75 11C9.75 9.75737 10.7574 8.75002 12 8.75002C13.2426 8.75002 14.25 9.75737 14.25 11C14.25 12.2427 13.2426 13.25 12 13.25C10.7574 13.25 9.75 12.2427 9.75 11Z" fill="black"/>
<path fill-rule="evenodd" clip-rule="evenodd" d="M18.1873 17.1873L13.9443 21.4303C13.4287 21.9455 12.7294 22.2351 12.0005 22.2351C11.2716 22.2351 10.5726 21.9457 10.0569 21.4306L5.81274 17.1874C4.58907 15.9637 3.75568 14.4045 3.4181 12.7072C3.08052 11.0099 3.25382 9.25055 3.9161 7.65172C4.57838 6.05289 5.69989 4.68636 7.13881 3.72491C8.57773 2.76347 10.2694 2.25031 12 2.25031C13.7306 2.25031 15.4223 2.76347 16.8612 3.72491C18.3001 4.68636 19.4216 6.05289 20.0839 7.65172C20.7462 9.25055 20.9195 11.0099 20.5819 12.7072C20.2443 14.4045 19.411 15.9636 18.1873 17.1873ZM7.97216 4.97212C9.16441 4.1755 10.5661 3.75031 12 3.75031C13.4339 3.75031 14.8356 4.1755 16.0278 4.97212C17.2201 5.76875 18.1493 6.90102 18.6981 8.22576C19.2468 9.55051 19.3904 11.0082 19.1107 12.4146C18.831 13.8209 18.1406 15.1128 17.1267 16.1267L12.8839 20.3694C12.6496 20.6036 12.3318 20.7351 12.0005 20.7351C11.6692 20.7351 11.3515 20.6036 11.1171 20.3694L6.87335 16.1267C5.8595 15.1128 5.16899 13.8209 4.88928 12.4146C4.60957 11.0082 4.75317 9.55051 5.30191 8.22576C5.85066 6.90102 6.77991 5.76875 7.97216 4.97212Z" fill="black"/>
</svg>
