<svg width="24" height="24" viewBox="0 0 24 24" fill="none" xmlns="http://www.w3.org/2000/svg">
<path fill-rule="evenodd" clip-rule="evenodd" d="M7 5.75C6.40326 5.75 5.83097 5.98705 5.40901 6.40901C4.98705 6.83097 4.75 7.40326 4.75 8V19.1893L7.46967 16.4697C7.61032 16.329 7.80109 16.25 8 16.25H17C17.5967 16.25 18.169 16.0129 18.591 15.591C19.0129 15.169 19.25 14.5967 19.25 14V8C19.25 7.40326 19.0129 6.83097 18.591 6.40901C18.169 5.98705 17.5967 5.75 17 5.75H7ZM4.34835 5.34835C5.05161 4.64509 6.00544 4.25 7 4.25H17C17.9946 4.25 18.9484 4.64509 19.6516 5.34835C20.3549 6.05161 20.75 7.00544 20.75 8V14C20.75 14.9946 20.3549 15.9484 19.6516 16.6517C18.9484 17.3549 17.9946 17.75 17 17.75H8.31066L4.53033 21.5303C4.31583 21.7448 3.99324 21.809 3.71299 21.6929C3.43273 21.5768 3.25 21.3033 3.25 21V8C3.25 7.00544 3.64509 6.05161 4.34835 5.34835ZM7.25 8.25H8H16H16.75V9.75H16H8H7.25V8.25ZM8 12.25H7.25V13.75H8H14H14.75V12.25H14H8Z" fill="black"/>
</svg>
