<svg width="24" height="24" viewBox="0 0 24 24" fill="none" xmlns="http://www.w3.org/2000/svg">
<path d="M12.75 16.25H11.25V17.76H12.75V16.25Z" fill="black"/>
<path fill-rule="evenodd" clip-rule="evenodd" d="M6.25 5C6.25 4.0335 7.0335 3.25 8 3.25H16C16.9665 3.25 17.75 4.0335 17.75 5V19C17.75 19.9665 16.9665 20.75 16 20.75H8C7.0335 20.75 6.25 19.9665 6.25 19V5ZM8 4.75C7.86193 4.75 7.75 4.86193 7.75 5V19C7.75 19.1381 7.86193 19.25 8 19.25H16C16.1381 19.25 16.25 19.1381 16.25 19V5C16.25 4.86193 16.1381 4.75 16 4.75H13.75V5.75H10.25V4.75H8Z" fill="black"/>
</svg>
