<svg width="24" height="24" viewBox="0 0 24 24" fill="none" xmlns="http://www.w3.org/2000/svg">
<path d="M12.9884 7.25C13.4822 7.23582 13.9708 7.35494 14.4028 7.59493C14.8388 7.83714 15.2007 8.19335 15.4498 8.62542L15.8243 9.27519L14.5248 10.0243L14.1502 9.37458C14.037 9.17818 13.8725 9.01626 13.6743 8.90617C13.4762 8.79608 13.2518 8.74195 13.0252 8.74958C13.0168 8.74986 13.0084 8.75 13 8.75H11C10.6685 8.75 10.3505 8.8817 10.1161 9.11612C9.8817 9.35054 9.75 9.66848 9.75 10C9.75 10.3315 9.8817 10.6495 10.1161 10.8839C10.3505 11.1183 10.6685 11.25 11 11.25H13C13.7293 11.25 14.4288 11.5397 14.9445 12.0555C15.4603 12.5712 15.75 13.2707 15.75 14C15.75 14.7293 15.4603 15.4288 14.9445 15.9445C14.4288 16.4603 13.7293 16.75 13 16.75H12.75V18.75H11.25V16.75H11.0116C10.5178 16.7642 10.0292 16.6451 9.59719 16.4051C9.16122 16.1629 8.79932 15.8067 8.55024 15.3746L8.17566 14.7248L9.47519 13.9757L9.84976 14.6254C9.96298 14.8218 10.1275 14.9837 10.3257 15.0938C10.5238 15.2039 10.7482 15.2581 10.9748 15.2504C10.9832 15.2501 10.9916 15.25 11 15.25H13C13.3315 15.25 13.6495 15.1183 13.8839 14.8839C14.1183 14.6495 14.25 14.3315 14.25 14C14.25 13.6685 14.1183 13.3505 13.8839 13.1161C13.6495 12.8817 13.3315 12.75 13 12.75H11C10.2707 12.75 9.57118 12.4603 9.05546 11.9445C8.53973 11.4288 8.25 10.7293 8.25 10C8.25 9.27065 8.53973 8.57118 9.05546 8.05546C9.57118 7.53973 10.2707 7.25 11 7.25H11.25V6C11.25 5.58579 11.5858 5.25 12 5.25C12.4142 5.25 12.75 5.58579 12.75 6V7.25H12.9884Z" fill="black"/>
<path fill-rule="evenodd" clip-rule="evenodd" d="M2.25 12C2.25 6.61522 6.61522 2.25 12 2.25C17.3848 2.25 21.75 6.61522 21.75 12C21.75 17.3848 17.3848 21.75 12 21.75C6.61522 21.75 2.25 17.3848 2.25 12ZM12 3.75C7.44365 3.75 3.75 7.44365 3.75 12C3.75 16.5563 7.44365 20.25 12 20.25C16.5563 20.25 20.25 16.5563 20.25 12C20.25 7.44365 16.5563 3.75 12 3.75Z" fill="black"/>
</svg>
