<svg width="24" height="24" viewBox="0 0 24 24" fill="none" xmlns="http://www.w3.org/2000/svg">
<path d="M16.0607 8L15 6.93934L7.93934 14L9 15.0607L16.0607 8Z" fill="black"/>
<path d="M10 8.5C10 8.77614 9.77614 9 9.5 9C9.22386 9 9 8.77614 9 8.5C9 8.22386 9.22386 8 9.5 8C9.77614 8 10 8.22386 10 8.5Z" fill="black"/>
<path d="M14.5 14C14.7761 14 15 13.7761 15 13.5C15 13.2239 14.7761 13 14.5 13C14.2239 13 14 13.2239 14 13.5C14 13.7761 14.2239 14 14.5 14Z" fill="black"/>
<path fill-rule="evenodd" clip-rule="evenodd" d="M7 2.25C6.27065 2.25 5.57118 2.53973 5.05546 3.05546C4.53973 3.57118 4.25 4.27065 4.25 5V21C4.25 21.2766 4.40224 21.5307 4.64611 21.6613C4.88997 21.7918 5.18588 21.7775 5.41603 21.624L7.90444 19.9651L9.46967 21.5303C9.76256 21.8232 10.2374 21.8232 10.5303 21.5303L12 20.0607L13.4697 21.5303C13.7626 21.8232 14.2374 21.8232 14.5303 21.5303L16.0956 19.9651L18.584 21.624C18.8141 21.7775 19.11 21.7918 19.3539 21.6613C19.5978 21.5307 19.75 21.2766 19.75 21V5C19.75 4.27065 19.4603 3.57118 18.9445 3.05546C18.4288 2.53973 17.7293 2.25 17 2.25H7ZM6.11612 4.11612C6.35054 3.8817 6.66848 3.75 7 3.75H17C17.3315 3.75 17.6495 3.8817 17.8839 4.11612C18.1183 4.35054 18.25 4.66848 18.25 5V19.5986L16.416 18.376C16.1186 18.1777 15.7225 18.2169 15.4697 18.4697L14 19.9393L12.5303 18.4697C12.2374 18.1768 11.7626 18.1768 11.4697 18.4697L10 19.9393L8.53033 18.4697C8.27753 18.2169 7.88144 18.1777 7.58397 18.376L5.75 19.5986V5C5.75 4.66848 5.8817 4.35054 6.11612 4.11612Z" fill="black"/>
</svg>
