<svg width="24" height="24" viewBox="0 0 24 24" fill="none" xmlns="http://www.w3.org/2000/svg">
<path fill-rule="evenodd" clip-rule="evenodd" d="M12.0648 1.94132L12.5308 2.46812C14.7162 4.38605 17.56 5.38375 20.4657 5.25078C20.8109 5.23499 21.1221 5.45701 21.2196 5.78848C21.7015 7.42793 21.849 9.14754 21.6532 10.8451C21.4574 12.5427 20.9224 14.1836 20.0799 15.6703C19.2375 17.157 18.1047 18.4592 16.7491 19.4995C15.3934 20.5398 13.8424 21.2969 12.1883 21.726C12.0648 21.758 11.9352 21.758 11.8117 21.726C10.1576 21.2969 8.60666 20.5398 7.25098 19.4995C5.8953 18.4592 4.76257 17.157 3.9201 15.6703C3.07763 14.1836 2.54261 12.5427 2.34683 10.8451C2.15106 9.14754 2.29852 7.42793 2.78046 5.78848C2.8779 5.45701 3.18917 5.23499 3.5343 5.25078C6.44008 5.38375 9.28379 4.38605 11.4692 2.46812L11.9353 1.94132L12 1.9986L12.0648 1.94132ZM4.07266 6.76254C6.95373 6.75719 9.74856 5.77568 12 3.97935C14.2515 5.77568 17.0463 6.75719 19.9274 6.76254C20.2337 8.04085 20.314 9.36448 20.1631 10.6733C19.9903 12.1711 19.5183 13.619 18.7749 14.9308C18.0315 16.2426 17.0321 17.3916 15.8359 18.3095C14.6913 19.1878 13.3889 19.8374 12 20.2234C10.6111 19.8374 9.30875 19.1878 8.16414 18.3095C6.96796 17.3916 5.96849 16.2426 5.22513 14.9308C4.48177 13.619 4.0097 12.1711 3.83695 10.6733C3.68602 9.36448 3.7663 8.04085 4.07266 6.76254ZM15.5303 10.5303L16.0607 10L15 8.93934L14.4697 9.46967L11 12.9393L9.53033 11.4697L9 10.9393L7.93934 12L8.46967 12.5303L10.4697 14.5303C10.7626 14.8232 11.2374 14.8232 11.5303 14.5303L15.5303 10.5303Z" fill="black"/>
<path fill-rule="evenodd" clip-rule="evenodd" d="M12.0648 1.94131L12.5308 2.46812C14.7162 4.38605 17.56 5.38375 20.4657 5.25078C20.8109 5.23499 21.1221 5.45701 21.2196 5.78847C21.7015 7.42793 21.849 9.14753 21.6532 10.8451C21.4574 12.5427 20.9224 14.1836 20.0799 15.6703C19.2375 17.157 18.1047 18.4592 16.7491 19.4995C15.3934 20.5398 13.8424 21.2969 12.1883 21.726C12.0648 21.758 11.9352 21.758 11.8117 21.726C10.1576 21.2969 8.60666 20.5398 7.25098 19.4995C5.8953 18.4592 4.76257 17.157 3.9201 15.6703C3.07763 14.1836 2.54261 12.5427 2.34683 10.8451C2.15106 9.14753 2.29852 7.42793 2.78046 5.78847C2.8779 5.45701 3.18917 5.23499 3.5343 5.25078C6.44008 5.38375 9.28379 4.38605 11.4692 2.46812L11.9353 1.94131L12 1.9986L12.0648 1.94131ZM4.07266 6.76253C6.95373 6.75719 9.74856 5.77568 12 3.97935C14.2515 5.77568 17.0463 6.75719 19.9274 6.76253C20.2337 8.04085 20.314 9.36447 20.1631 10.6733C19.9903 12.1711 19.5183 13.619 18.7749 14.9308C18.0315 16.2426 17.0321 17.3916 15.8359 18.3095C14.6913 19.1878 13.3889 19.8374 12 20.2234C10.6111 19.8374 9.30875 19.1878 8.16414 18.3095C6.96796 17.3916 5.96849 16.2426 5.22513 14.9308C4.48177 13.619 4.0097 12.1711 3.83695 10.6733C3.68602 9.36447 3.7663 8.04085 4.07266 6.76253ZM15.5303 10.5303L16.0607 10L15 8.93934L14.4697 9.46967L11 12.9393L9.53033 11.4697L9 10.9393L7.93934 12L8.46967 12.5303L10.4697 14.5303C10.7626 14.8232 11.2374 14.8232 11.5303 14.5303L15.5303 10.5303Z" fill="black"/>
</svg>
