<svg width="24" height="24" viewBox="0 0 24 24" fill="none" xmlns="http://www.w3.org/2000/svg">
<path d="M21.5 6.77519C20.7826 7.07692 20.0121 7.28058 19.2021 7.37115C20.028 6.90269 20.6625 6.16077 20.9618 5.27692C20.1883 5.71019 19.3325 6.02635 18.4213 6.19538C17.6911 5.45981 16.6512 5 15.4998 5C13.2903 5 11.5001 6.695 11.5001 8.78635C11.5001 9.08288 11.5348 9.3725 11.6031 9.64942C8.27813 9.49135 5.33046 7.98385 3.35681 5.69288C3.01303 6.2525 2.81555 6.90269 2.81555 7.59673C2.81555 8.91096 3.52199 10.0694 4.59476 10.749C3.93952 10.7288 3.32267 10.5592 2.78324 10.2754C2.78263 10.291 2.78263 10.3077 2.78263 10.3227C2.78263 12.1579 4.16138 13.6885 5.99179 14.0363C5.65655 14.1223 5.30303 14.169 4.93792 14.169C4.67948 14.169 4.42958 14.1454 4.18577 14.1015C4.69411 15.605 6.17221 16.7 7.92217 16.7312C6.55378 17.7465 4.82882 18.3529 2.95452 18.3529C2.63147 18.3529 2.31269 18.335 2 18.2998C3.77007 19.3729 5.87294 20 8.13245 20C15.4907 20 19.5154 14.2302 19.5154 9.22596C19.5154 9.06212 19.5105 8.89827 19.5032 8.73558C20.2852 8.20192 20.963 7.53558 21.5 6.77519Z" fill="black"/>
</svg>
