<svg width="24" height="24" viewBox="0 0 24 24" fill="none" xmlns="http://www.w3.org/2000/svg">
<path fill-rule="evenodd" clip-rule="evenodd" d="M20.3231 5.42996C21.2083 5.66649 21.9052 6.36348 22.1418 7.24863C22.5718 8.8529 22.5718 12.2002 22.5718 12.2002C22.5718 12.2002 22.5718 15.5474 22.1418 17.1515C21.9052 18.0367 21.2083 18.7338 20.3231 18.9704C18.7187 19.4001 12.2858 19.4001 12.2858 19.4001C12.2858 19.4001 5.8529 19.4001 4.24843 18.9704C3.36348 18.7338 2.66633 18.0367 2.42976 17.1515C2 15.5474 2 12.2002 2 12.2002C2 12.2002 2 8.8529 2.42976 7.24863C2.66633 6.36348 3.36348 5.66649 4.24843 5.42996C5.8529 5 12.2858 5 12.2858 5C12.2858 5 18.7187 5 20.3231 5.42996ZM15.5733 12.2003L10.2288 15.2861V9.1145L15.5733 12.2003Z" fill="black"/>
</svg>
