<svg width="24" height="24" viewBox="0 0 24 24" fill="none" xmlns="http://www.w3.org/2000/svg">
<path fill-rule="evenodd" clip-rule="evenodd" d="M15.975 3H8.85C7.30009 3.00463 5.8143 3.62238 4.71834 4.71834C3.62238 5.8143 3.00463 7.30009 3 8.85V15.9757C3.00463 17.5256 3.62238 19.0107 4.71834 20.1067C5.8143 21.2026 7.30009 21.8204 8.85 21.825H15.9757C17.5256 21.8204 19.0107 21.2026 20.1067 20.1067C21.2026 19.0107 21.8204 17.5249 21.825 15.975V8.84933C21.8204 7.29941 21.2026 5.8143 20.1067 4.71834C19.0107 3.62238 17.5249 3.00463 15.975 3ZM6.09228 6.09228C6.82368 5.36089 7.81566 4.95 8.85 4.95H15.975C17.0093 4.95 18.0013 5.36089 18.7327 6.09228C19.4641 6.82368 19.875 7.81566 19.875 8.85V15.975C19.875 17.0093 19.4641 18.0013 18.7327 18.7327C18.0013 19.4641 17.0093 19.875 15.975 19.875H8.85C7.81566 19.875 6.82368 19.4641 6.09228 18.7327C5.36089 18.0013 4.95 17.0093 4.95 15.975V8.85C4.95 7.81566 5.36089 6.82368 6.09228 6.09228ZM17.3138 6.41254C17.1013 6.41254 16.8935 6.47555 16.7169 6.5936C16.5402 6.71166 16.4025 6.87945 16.3212 7.07577C16.2398 7.27208 16.2186 7.4881 16.26 7.69651C16.3015 7.90492 16.4038 8.09636 16.5541 8.24661C16.7043 8.39686 16.8957 8.49919 17.1042 8.54064C17.3126 8.5821 17.5286 8.56082 17.7249 8.4795C17.9212 8.39819 18.089 8.26048 18.2071 8.0838C18.3251 7.90712 18.3881 7.6994 18.3881 7.48691C18.3881 7.34582 18.3603 7.20612 18.3063 7.07577C18.2524 6.94542 18.1732 6.82698 18.0734 6.72721C17.9737 6.62745 17.8552 6.54831 17.7249 6.49432C17.5945 6.44033 17.4548 6.41254 17.3138 6.41254ZM14.3055 9.68352C13.7601 9.3194 13.1189 9.12525 12.4631 9.12562C11.5849 9.12711 10.743 9.47664 10.122 10.0977C9.501 10.7187 9.15146 11.5605 9.14997 12.4387C9.1496 13.0945 9.34375 13.7357 9.70787 14.2812C10.072 14.8266 10.5897 15.2518 11.1955 15.5029C11.8013 15.7541 12.468 15.8199 13.1112 15.692C13.7545 15.5642 14.3453 15.2484 14.809 14.7847C15.2728 14.3209 15.5885 13.7301 15.7164 13.0869C15.8442 12.4437 15.7784 11.777 15.5273 11.1712C15.2761 10.5653 14.851 10.0476 14.3055 9.68352ZM9.79039 8.44178C10.581 7.91149 11.5111 7.62747 12.4631 7.62562C13.096 7.62439 13.723 7.74796 14.3082 7.98927C14.8933 8.23057 15.4251 8.58488 15.8732 9.03192C16.3213 9.47896 16.6768 10.01 16.9195 10.5945C17.1622 11.1791 17.2872 11.8058 17.2875 12.4387C17.2878 13.3907 17.006 14.3215 16.4776 15.1133C15.9491 15.9052 15.1978 16.5227 14.3186 16.8877C13.4393 17.2526 12.4716 17.3488 11.5377 17.164C10.6038 16.9792 9.74568 16.5217 9.07173 15.8493C8.39778 15.1769 7.93827 14.3198 7.75128 13.3864C7.56428 12.4529 7.65819 11.485 8.02113 10.6049C8.38407 9.72482 8.99976 8.97206 9.79039 8.44178Z" fill="black"/>
</svg>
