<svg width="24" height="24" viewBox="0 0 24 24" fill="none" xmlns="http://www.w3.org/2000/svg">
<path d="M12.6655 1.67009C12.5392 1.41409 12.2785 1.25201 11.993 1.25201C11.7075 1.25201 11.4468 1.41409 11.3204 1.67009L8.40901 7.56935L1.89941 8.51277C1.61673 8.55374 1.38187 8.75171 1.29365 9.02337C1.20543 9.29503 1.27917 9.59322 1.48385 9.79244L6.20105 14.3842L5.08878 20.8682C5.04051 21.1496 5.15618 21.434 5.38714 21.6018C5.6181 21.7696 5.92431 21.7917 6.177 21.6589L11.9996 18.5976L17.8083 21.6585C18.061 21.7917 18.3674 21.7698 18.5985 21.602C18.8297 21.4342 18.9455 21.1497 18.8972 20.8682L17.7849 14.3842L22.5021 9.79244C22.7068 9.59322 22.7805 9.29503 22.6923 9.02337C22.6041 8.75171 22.3692 8.55374 22.0866 8.51277L15.577 7.56935L12.6655 1.67009Z" fill="black"/>
</svg>
