<svg width="24" height="24" viewBox="0 0 24 24" fill="none" xmlns="http://www.w3.org/2000/svg">
<path fill-rule="evenodd" clip-rule="evenodd" d="M11.993 1.25201C12.2785 1.25201 12.5392 1.41409 12.6655 1.67009L15.577 7.56935L22.0866 8.51277C22.3692 8.55374 22.6041 8.75171 22.6923 9.02337C22.7805 9.29503 22.7068 9.59322 22.5021 9.79244L17.7849 14.3842L18.8972 20.8682C18.9455 21.1497 18.8297 21.4342 18.5985 21.602C18.3674 21.7698 18.061 21.7917 17.8083 21.6585L11.9996 18.5976L6.177 21.6589C5.92431 21.7917 5.61811 21.7696 5.38714 21.6018C5.15618 21.434 5.04051 21.1496 5.08878 20.8682L6.20105 14.3842L1.48385 9.79244C1.27917 9.59322 1.20543 9.29503 1.29365 9.02337C1.38187 8.75171 1.61673 8.55374 1.89941 8.51277L8.40901 7.56935L11.3204 1.67009C11.4468 1.41409 11.7075 1.25201 11.993 1.25201ZM11.993 3.6967L9.57953 8.58694C9.47024 8.80838 9.25895 8.96184 9.01455 8.99726L3.62054 9.779L7.53011 13.5846C7.70714 13.7569 7.78795 14.0053 7.74618 14.2488L6.82413 19.6239L11.651 17.0862C11.8697 16.9712 12.131 16.9713 12.3496 17.0865L17.1615 19.6222L16.2398 14.2488C16.198 14.0053 16.2788 13.7569 16.4558 13.5846L20.3654 9.779L14.9714 8.99726C14.727 8.96184 14.5157 8.80838 14.4064 8.58694L11.993 3.6967Z" fill="black"/>
</svg>
