<svg width="24" height="24" viewBox="0 0 24 24" fill="none" xmlns="http://www.w3.org/2000/svg">
<path fill-rule="evenodd" clip-rule="evenodd" d="M4.32918 2.66459C4.45622 2.4105 4.71592 2.25 5 2.25H19C19.2841 2.25 19.5438 2.4105 19.6708 2.66459L21.6708 6.66459C21.7229 6.76873 21.75 6.88357 21.75 7V8C21.75 8.99456 21.3549 9.94839 20.6517 10.6517C20.3836 10.9197 20.0792 11.1429 19.75 11.3166V20.25H21C21.4142 20.25 21.75 20.5858 21.75 21C21.75 21.4142 21.4142 21.75 21 21.75H19.0017L19 21.75L18.9983 21.75H5.00171L5 21.75L4.99829 21.75H3C2.58579 21.75 2.25 21.4142 2.25 21C2.25 20.5858 2.58579 20.25 3 20.25H4.25V11.3166C3.9208 11.1429 3.61638 10.9197 3.34835 10.6517C2.64509 9.94839 2.25 8.99456 2.25 8V7C2.25 6.88357 2.27711 6.76873 2.32918 6.66459L4.32918 2.66459ZM9.75 20.25H14.25V17C14.25 16.6685 14.1183 16.3505 13.8839 16.1161C13.6495 15.8817 13.3315 15.75 13 15.75H11C10.6685 15.75 10.3505 15.8817 10.1161 16.1161C9.8817 16.3505 9.75 16.6685 9.75 17V20.25ZM15.75 20.25V17C15.75 16.2707 15.4603 15.5712 14.9445 15.0555C14.4288 14.5397 13.7293 14.25 13 14.25H11C10.2707 14.25 9.57118 14.5397 9.05546 15.0555C8.53973 15.5712 8.25 16.2707 8.25 17V20.25H5.75V11.7417C5.83296 11.7472 5.91634 11.75 6 11.75C6.99456 11.75 7.94839 11.3549 8.65165 10.6517C8.78834 10.515 8.90316 10.3545 9 10.1879C9.09685 10.3545 9.21166 10.515 9.34835 10.6517C10.0516 11.3549 11.0054 11.75 12 11.75C12.9946 11.75 13.9484 11.3549 14.6517 10.6517C14.7779 10.5254 14.8941 10.3912 15 10.25C15.1059 10.3912 15.2221 10.5254 15.3483 10.6517C16.0516 11.3549 17.0054 11.75 18 11.75C18.0837 11.75 18.167 11.7472 18.25 11.7417V20.25H15.75ZM9.81737 7.83648C9.85076 8.0518 9.89662 8.28342 9.9551 8.5127C10.0228 8.77832 10.103 9.02254 10.1907 9.22204C10.2826 9.43132 10.3627 9.54473 10.409 9.59099C10.831 10.0129 11.4033 10.25 12 10.25C12.5967 10.25 13.169 10.0129 13.591 9.59099C14.0129 9.16904 14.25 8.59674 14.25 8V7.7626L9.81737 7.83648ZM15.75 7.75V8C15.75 8.59674 15.9871 9.16904 16.409 9.59099C16.831 10.0129 17.4033 10.25 18 10.25C18.5967 10.25 19.169 10.0129 19.591 9.59099C20.0129 9.16904 20.25 8.59674 20.25 8V7.75H15.75ZM19.7865 6.25H4.21353L5.46353 3.75H18.5365L19.7865 6.25ZM3.75 7.75H8.1955C8.16142 7.98906 8.11129 8.25239 8.0449 8.5127C7.97716 8.77832 7.89701 9.02254 7.80934 9.22204C7.71737 9.43132 7.63725 9.54473 7.59099 9.59099C7.16903 10.0129 6.59674 10.25 6 10.25C5.40326 10.25 4.83097 10.0129 4.40901 9.59099C3.98705 9.16904 3.75 8.59674 3.75 8V7.75Z" fill="black"/>
</svg>
