<svg width="24" height="24" viewBox="0 0 24 24" fill="none" xmlns="http://www.w3.org/2000/svg">
<path d="M15.75 10.25H14.25V13.75H15.75V10.25Z" fill="black"/>
<path fill-rule="evenodd" clip-rule="evenodd" d="M5 19.75C4.27065 19.75 3.57118 19.4603 3.05546 18.9445C2.53973 18.4288 2.25 17.7293 2.25 17V14C2.25 13.5858 2.58579 13.25 3 13.25C3.33152 13.25 3.64946 13.1183 3.88388 12.8839C4.1183 12.6495 4.25 12.3315 4.25 12C4.25 11.6685 4.1183 11.3505 3.88388 11.1161C3.64946 10.8817 3.33152 10.75 3 10.75C2.58579 10.75 2.25 10.4142 2.25 10V7C2.25 6.27065 2.53973 5.57118 3.05546 5.05546C3.39024 4.72067 3.80245 4.48112 4.25 4.35424V4.25H19C19.7293 4.25 20.4288 4.53973 20.9445 5.05546C21.4603 5.57118 21.75 6.27065 21.75 7V10C21.75 10.4142 21.4142 10.75 21 10.75C20.6685 10.75 20.3505 10.8817 20.1161 11.1161C19.8817 11.3505 19.75 11.6685 19.75 12C19.75 12.3315 19.8817 12.6495 20.1161 12.8839C20.3505 13.1183 20.6685 13.25 21 13.25C21.4142 13.25 21.75 13.5858 21.75 14V17C21.75 17.7293 21.4603 18.4288 20.9445 18.9445C20.4288 19.4603 19.7293 19.75 19 19.75H5ZM4.11612 6.11612C4.35054 5.8817 4.66848 5.75 5 5.75H14.25V7.75H15.75V5.75H19C19.3315 5.75 19.6495 5.8817 19.8839 6.11612C20.1183 6.35054 20.25 6.66848 20.25 7V9.35424C19.8025 9.48113 19.3902 9.72067 19.0555 10.0555C18.5397 10.5712 18.25 11.2707 18.25 12C18.25 12.7293 18.5397 13.4288 19.0555 13.9445C19.3902 14.2793 19.8025 14.5189 20.25 14.6458V17C20.25 17.3315 20.1183 17.6495 19.8839 17.8839C19.6495 18.1183 19.3315 18.25 19 18.25H15.75V16.25H14.25V18.25H5C4.66848 18.25 4.35054 18.1183 4.11612 17.8839C3.8817 17.6495 3.75 17.3315 3.75 17V14.6458C4.19755 14.5189 4.60976 14.2793 4.94454 13.9445C5.46027 13.4288 5.75 12.7293 5.75 12C5.75 11.2707 5.46027 10.5712 4.94454 10.0555C4.60976 9.72067 4.19755 9.48113 3.75 9.35424V7C3.75 6.66848 3.8817 6.35054 4.11612 6.11612Z" fill="black"/>
</svg>
