<svg width="24" height="24" viewBox="0 0 24 24" fill="none" xmlns="http://www.w3.org/2000/svg">
<path fill-rule="evenodd" clip-rule="evenodd" d="M12 2.25C9.37665 2.25 7.25 4.37665 7.25 7C7.25 9.62335 9.37665 11.75 12 11.75C14.6234 11.75 16.75 9.62335 16.75 7C16.75 4.37665 14.6234 2.25 12 2.25ZM8.75 7C8.75 5.20507 10.2051 3.75 12 3.75C13.7949 3.75 15.25 5.20507 15.25 7C15.25 8.79493 13.7949 10.25 12 10.25C10.2051 10.25 8.75 8.79493 8.75 7Z" fill="black"/>
<path d="M7.7019 16.7019C8.3114 16.0924 9.13805 15.75 10 15.75H14C14.862 15.75 15.6886 16.0924 16.2981 16.7019C16.9076 17.3114 17.25 18.138 17.25 19V21.75H18.75V19C18.75 17.7402 18.2496 16.532 17.3588 15.6412C16.468 14.7504 15.2598 14.25 14 14.25H10C8.74022 14.25 7.53204 14.7504 6.64124 15.6412C5.75044 16.532 5.25 17.7402 5.25 19V21.75H6.75V19C6.75 18.138 7.09241 17.3114 7.7019 16.7019Z" fill="black"/>
</svg>
