<svg width="24" height="24" viewBox="0 0 24 24" fill="none" xmlns="http://www.w3.org/2000/svg">
<path fill-rule="evenodd" clip-rule="evenodd" d="M12.3914 21.7423C12.4909 21.7568 12.5917 21.7509 12.6878 21.7261C17.7516 21.3732 21.75 17.1536 21.75 12C21.75 6.84645 17.7516 2.62677 12.6878 2.27389C12.5917 2.24908 12.4909 2.24322 12.3914 2.25772C12.2616 2.2526 12.1311 2.25001 12 2.25001C11.8689 2.25001 11.7384 2.2526 11.6086 2.25772C11.5091 2.24322 11.4083 2.24908 11.3123 2.27389C6.24841 2.62675 2.25 6.84644 2.25 12C2.25 17.1536 6.24841 21.3733 11.3123 21.7261C11.4083 21.7509 11.5091 21.7568 11.6086 21.7423C11.7385 21.7474 11.8689 21.75 12 21.75C12.1311 21.75 12.2616 21.7474 12.3914 21.7423ZM12.078 3.75037C12.052 3.75013 12.026 3.75001 12 3.75001C11.974 3.75001 11.948 3.75013 11.922 3.75037C11.0934 5.15662 10.4846 6.67406 10.1109 8.25001H13.8892C13.5154 6.67406 12.9067 5.15662 12.078 3.75037ZM14.1713 9.75001H9.82876C9.72491 10.4928 9.67224 11.2445 9.67224 12C9.67224 12.7555 9.72491 13.5072 9.82876 14.25H14.1713C14.2751 13.5072 14.3278 12.7555 14.3278 12C14.3278 11.2445 14.2751 10.4928 14.1713 9.75001ZM15.6846 14.25C15.7797 13.5063 15.8278 12.7549 15.8278 12C15.8278 11.2451 15.7797 10.4937 15.6846 9.75001H19.9395C20.1417 10.4653 20.25 11.22 20.25 12C20.25 12.78 20.1417 13.5348 19.9395 14.25H15.6846ZM13.8892 15.75H10.1109C10.4846 17.326 11.0934 18.8434 11.922 20.2496C11.948 20.2499 11.974 20.25 12 20.25C12.026 20.25 12.052 20.2499 12.078 20.2496C12.9067 18.8434 13.5154 17.326 13.8892 15.75ZM13.9085 20.0281C14.5971 18.6703 15.1068 17.2322 15.4271 15.75H19.3504C18.2647 17.8739 16.2855 19.4652 13.9085 20.0281ZM13.9085 3.97188C16.2855 4.53483 18.2647 6.12611 19.3504 8.25001H15.4271C15.1068 6.76779 14.5971 5.32967 13.9085 3.97188ZM10.0915 20.0282C9.40294 18.6704 8.89327 17.2322 8.57289 15.75H4.64956C5.7353 17.8739 7.71452 19.4652 10.0915 20.0282ZM8.17224 12C8.17224 11.2451 8.22038 10.4937 8.31541 9.75001H4.06055C3.85825 10.4653 3.75 11.22 3.75 12C3.75 12.78 3.85825 13.5348 4.06055 14.25H8.31541C8.22038 13.5063 8.17224 12.7549 8.17224 12ZM8.57289 8.25001C8.89327 6.76778 9.40294 5.32967 10.0915 3.97187C7.71452 4.53481 5.7353 6.1261 4.64956 8.25001H8.57289Z" fill="black"/>
</svg>
